<svg xmlns="http://www.w3.org/2000/svg" viewBox="0 0 812.71 670.05"><defs><style>.cls-1{fill:none;stroke:#00d28b;stroke-miterlimit:10;stroke-width:4px;}.cls-2{fill:#00d28b;}</style></defs><title>AI.nxt Artboard</title><g id="Layer_2" data-name="Layer 2"><g id="Layer_1-2" data-name="Layer 1"><rect class="cls-1" x="246.76" y="240.69" width="106.95" height="106.95" rx="9.85"/><path class="cls-1" d="M390.22,333H379.48V319.41h10.74a3.9,3.9,0,0,0,0-7.8H379.48V298.06h10.74a3.9,3.9,0,0,0,0-7.8H379.48V276.71h10.74a3.9,3.9,0,0,0,0-7.79H379.48V255.36h10.74a3.9,3.9,0,0,0,0-7.79H379.48v-7.83a24.84,24.84,0,0,0-24.82-24.82h-8V204a3.9,3.9,0,0,0-7.79,0v10.91H325.31V204a3.9,3.9,0,0,0-7.79,0v10.91H304V204a3.9,3.9,0,0,0-7.79,0v10.91H282.62V204a3.9,3.9,0,0,0-7.8,0v10.91H261.27V204a3.9,3.9,0,0,0-7.8,0v10.91h-7.65A24.85,24.85,0,0,0,221,239.74v7.83H209.92a3.9,3.9,0,1,0,0,7.79H221v13.56H209.92a3.9,3.9,0,1,0,0,7.79H221v13.55H209.92a3.9,3.9,0,1,0,0,7.8H221v13.55H209.92a3.9,3.9,0,1,0,0,7.8H221V333H209.92a3.9,3.9,0,1,0,0,7.8H221v7.82a24.86,24.86,0,0,0,24.83,24.83h7.65v10.9a3.9,3.9,0,1,0,7.8,0v-10.9h13.55v10.9a3.9,3.9,0,1,0,7.8,0v-10.9h13.55v10.9a3.9,3.9,0,1,0,7.79,0v-10.9h13.56v10.9a3.9,3.9,0,1,0,7.79,0v-10.9h13.56v10.9a3.9,3.9,0,1,0,7.79,0v-10.9h8a24.85,24.85,0,0,0,24.82-24.83v-7.82h10.74a3.9,3.9,0,0,0,0-7.8Zm-25.34,15.62a10.23,10.23,0,0,1-10.22,10.23H245.82a10.23,10.23,0,0,1-10.22-10.23V239.74a10.23,10.23,0,0,1,10.22-10.22H354.66a10.23,10.23,0,0,1,10.22,10.22Z"/><circle class="cls-1" cx="483.94" cy="439.62" r="4.5"/><path class="cls-1" d="M428.35,138.81a4.51,4.51,0,1,1-4.51-4.5A4.5,4.5,0,0,1,428.35,138.81Z"/><path class="cls-1" d="M405.53,133a4.51,4.51,0,1,1-4.51-4.5A4.5,4.5,0,0,1,405.53,133Z"/><circle class="cls-1" cx="687.22" cy="201.66" r="4.5"/><path class="cls-1" d="M362.59,178.39a4.51,4.51,0,1,1-4.51-4.5A4.5,4.5,0,0,1,362.59,178.39Z"/><circle class="cls-1" cx="349.11" cy="137.48" r="4.5"/><path class="cls-1" d="M417.81,191.9a4.51,4.51,0,1,1-4.51-4.5A4.5,4.5,0,0,1,417.81,191.9Z"/><circle class="cls-1" cx="411.52" cy="101.71" r="4.5"/><circle class="cls-1" cx="401.93" cy="74.06" r="4.5"/><circle class="cls-1" cx="216.53" cy="8.16" r="4.5"/><circle class="cls-1" cx="682.71" cy="6.5" r="4.5"/><path class="cls-1" d="M174.54,154.1a4.51,4.51,0,1,1-4.51-4.5A4.51,4.51,0,0,1,174.54,154.1Z"/><path class="cls-1" d="M273.83,535.92a4.51,4.51,0,1,1-4.51-4.5A4.51,4.51,0,0,1,273.83,535.92Z"/><path class="cls-1" d="M234.56,535.92a4.5,4.5,0,1,1-4.5-4.5A4.5,4.5,0,0,1,234.56,535.92Z"/><path class="cls-1" d="M718.17,7a4.51,4.51,0,1,1-4.51-4.51A4.51,4.51,0,0,1,718.17,7Z"/><path class="cls-1" d="M659.17,46.6a4.5,4.5,0,1,1-4.5-4.5A4.5,4.5,0,0,1,659.17,46.6Z"/><circle class="cls-1" cx="654.67" cy="6.97" r="4.5"/><path class="cls-1" d="M729,107a4.51,4.51,0,1,1-4.51-4.51A4.51,4.51,0,0,1,729,107Z"/><path class="cls-1" d="M738.79,141.65a4.5,4.5,0,1,1-4.5-4.5A4.49,4.49,0,0,1,738.79,141.65Z"/><circle class="cls-1" cx="717.61" cy="125.73" r="4.5"/><path class="cls-1" d="M260.47,120.06a4.51,4.51,0,1,1-4.5-4.5A4.5,4.5,0,0,1,260.47,120.06Z"/><path class="cls-1" d="M171.3,222.72a4.51,4.51,0,1,1-4.51-4.51A4.51,4.51,0,0,1,171.3,222.72Z"/><circle class="cls-1" cx="122.04" cy="302.63" r="4.5"/><circle class="cls-1" cx="244.57" cy="75.65" r="4.5"/><path class="cls-1" d="M162.29,188.46a4.51,4.51,0,1,1-4.5-4.5A4.5,4.5,0,0,1,162.29,188.46Z"/><path class="cls-1" d="M223.4,422.71a4.51,4.51,0,1,1-4.5-4.5A4.5,4.5,0,0,1,223.4,422.71Z"/><circle class="cls-1" cx="286.24" cy="478.56" r="4.5"/><circle class="cls-1" cx="296.06" cy="457.35" r="4.5" transform="translate(-164.83 747.85) rotate(-89.31)"/><path class="cls-1" d="M151.66,323a4.5,4.5,0,1,1-4.5-4.5A4.49,4.49,0,0,1,151.66,323Z"/><path class="cls-1" d="M257.91,422.71a4.51,4.51,0,1,1-4.51-4.5A4.51,4.51,0,0,1,257.91,422.71Z"/><circle class="cls-1" cx="253.4" cy="453.77" r="4.5"/><path class="cls-1" d="M217,178.39a4.51,4.51,0,1,1-4.5-4.5A4.5,4.5,0,0,1,217,178.39Z"/><path class="cls-1" d="M202,196.77a4.51,4.51,0,1,1-4.5-4.5A4.5,4.5,0,0,1,202,196.77Z"/><path class="cls-1" d="M252.27,140.59a4.51,4.51,0,1,1-4.5-4.5A4.51,4.51,0,0,1,252.27,140.59Z"/><circle class="cls-1" cx="142.66" cy="236.62" r="4.5"/><circle class="cls-1" cx="267" cy="26.51" r="4.5"/><circle class="cls-1" cx="411.94" cy="379" r="4.5"/><path class="cls-1" d="M416.44,405.39a4.51,4.51,0,1,1-4.5-4.5A4.51,4.51,0,0,1,416.44,405.39Z"/><path class="cls-1" d="M482.07,402a4.51,4.51,0,1,1-4.5-4.5A4.49,4.49,0,0,1,482.07,402Z"/><path class="cls-1" d="M433.72,437.61a4.51,4.51,0,1,1-4.51-4.5A4.51,4.51,0,0,1,433.72,437.61Z"/><circle class="cls-1" cx="449.75" cy="406.54" r="4.5"/><circle class="cls-1" cx="134.6" cy="266.82" r="4.5"/><path class="cls-1" d="M443.76,182.89a4.5,4.5,0,1,1-4.5-4.5A4.5,4.5,0,0,1,443.76,182.89Z"/><circle class="cls-1" cx="431.17" cy="254.2" r="4.5"/><path class="cls-1" d="M711.73,309.24a4.51,4.51,0,1,1-4.51-4.51A4.5,4.5,0,0,1,711.73,309.24Z"/><path class="cls-1" d="M732.91,303.36a4.51,4.51,0,1,1-4.5-4.5A4.51,4.51,0,0,1,732.91,303.36Z"/><path class="cls-1" d="M750.13,316.44a4.51,4.51,0,1,1-4.5-4.51A4.5,4.5,0,0,1,750.13,316.44Z"/><path class="cls-1" d="M299.26,536.05a4.5,4.5,0,1,1-4.5-4.5A4.5,4.5,0,0,1,299.26,536.05Z"/><path class="cls-1" d="M321.07,536.05a4.51,4.51,0,1,1-4.5-4.5A4.5,4.5,0,0,1,321.07,536.05Z"/><path class="cls-1" d="M684.33,452.63a4.51,4.51,0,1,1-4.51-4.5A4.51,4.51,0,0,1,684.33,452.63Z"/><path class="cls-1" d="M598.14,663.55a4.51,4.51,0,1,1-4.51-4.51A4.51,4.51,0,0,1,598.14,663.55Z"/><path class="cls-1" d="M516.33,411.68a4.51,4.51,0,1,1-4.51-4.51A4.51,4.51,0,0,1,516.33,411.68Z"/><circle class="cls-1" cx="511.12" cy="503.15" r="4.5"/><path class="cls-1" d="M463.26,483a4.51,4.51,0,1,1-4.5-4.5A4.5,4.5,0,0,1,463.26,483Z"/><circle class="cls-1" cx="495.55" cy="487.51" r="4.5"/><path class="cls-1" d="M660.37,463a4.51,4.51,0,1,1-4.5-4.5A4.51,4.51,0,0,1,660.37,463Z"/><circle class="cls-1" cx="695.58" cy="398.17" r="4.5"/><path class="cls-1" d="M711.38,412.48a4.51,4.51,0,1,1-4.51-4.5A4.51,4.51,0,0,1,711.38,412.48Z"/><path class="cls-1" d="M718.64,452.63a4.51,4.51,0,1,1-4.5-4.5A4.5,4.5,0,0,1,718.64,452.63Z"/><path class="cls-1" d="M719.51,487.18a4.5,4.5,0,1,1-4.5-4.51A4.49,4.49,0,0,1,719.51,487.18Z"/><path class="cls-1" d="M659.17,551.58a4.5,4.5,0,1,1-4.5-4.51A4.5,4.5,0,0,1,659.17,551.58Z"/><circle class="cls-1" cx="704.59" cy="532.19" r="4.5"/><path class="cls-1" d="M708,589.55a4.51,4.51,0,1,1-4.5-4.51A4.51,4.51,0,0,1,708,589.55Z"/><path class="cls-1" d="M767,538.61a4.51,4.51,0,1,1-4.5-4.51A4.5,4.5,0,0,1,767,538.61Z"/><circle class="cls-1" cx="758.34" cy="560.58" r="4.5"/><path class="cls-1" d="M497.44,352a4.51,4.51,0,1,1-4.5-4.5A4.51,4.51,0,0,1,497.44,352Z"/><circle class="cls-1" cx="762.58" cy="618.64" r="4.5"/><circle class="cls-1" cx="736.5" cy="545.06" r="4.5"/><circle class="cls-1" cx="693.58" cy="663.55" r="4.5"/><path class="cls-1" d="M658.59,515.32a4.51,4.51,0,1,1-4.51-4.51A4.5,4.5,0,0,1,658.59,515.32Z"/><path class="cls-1" d="M737.41,382.37a4.5,4.5,0,1,1-4.5-4.5A4.49,4.49,0,0,1,737.41,382.37Z"/><path class="cls-1" d="M716.23,289.85a4.51,4.51,0,1,1-4.5-4.5A4.5,4.5,0,0,1,716.23,289.85Z"/><path class="cls-1" d="M659.17,229.8a4.5,4.5,0,1,1-4.5-4.51A4.5,4.5,0,0,1,659.17,229.8Z"/><circle class="cls-1" cx="654.67" cy="257.72" r="4.5"/><path class="cls-1" d="M487.48,323a4.51,4.51,0,1,1-4.5-4.5A4.5,4.5,0,0,1,487.48,323Z"/><path class="cls-1" d="M480.8,300.11a4.51,4.51,0,1,1-4.5-4.5A4.51,4.51,0,0,1,480.8,300.11Z"/><circle class="cls-1" cx="654.08" cy="290.86" r="4.5"/><path class="cls-1" d="M688.44,290.86a4.51,4.51,0,1,1-4.51-4.51A4.5,4.5,0,0,1,688.44,290.86Z"/><circle class="cls-1" cx="392.21" cy="44.33" r="4.5"/><circle class="cls-1" cx="207.52" cy="36.8" r="4.5"/><path class="cls-1" d="M228.58,68.63a4.51,4.51,0,1,1-4.5-4.51A4.51,4.51,0,0,1,228.58,68.63Z"/><circle class="cls-1" cx="210.56" cy="101.71" r="4.5"/><path class="cls-1" d="M160.67,364a4.51,4.51,0,1,1-4.5-4.5A4.5,4.5,0,0,1,160.67,364Z"/><circle class="cls-1" cx="201.52" cy="354.83" r="4.5"/><path class="cls-1" d="M115,490.1a4.5,4.5,0,1,1-4.5-4.5A4.5,4.5,0,0,1,115,490.1Z"/><path class="cls-1" d="M112.06,535.92a4.51,4.51,0,1,1-4.51-4.5A4.51,4.51,0,0,1,112.06,535.92Z"/><path class="cls-1" d="M442.72,457.35a4.5,4.5,0,1,1-4.5-4.51A4.5,4.5,0,0,1,442.72,457.35Z"/><circle class="cls-1" cx="165.18" cy="332.04" r="4.5"/><path class="cls-1" d="M810.28,113.63a4.5,4.5,0,1,1-6-2.14A4.51,4.51,0,0,1,810.28,113.63Z"/><path class="cls-1" d="M810.28,49.18a4.5,4.5,0,1,1-6-2.14A4.51,4.51,0,0,1,810.28,49.18Z"/><path class="cls-1" d="M754.21,44.67a4.5,4.5,0,1,1-6-2.14A4.5,4.5,0,0,1,754.21,44.67Z"/><path class="cls-1" d="M783.46,87.7a4.5,4.5,0,1,1-6-2.14A4.5,4.5,0,0,1,783.46,87.7Z"/><path class="cls-1" d="M374.21,129.07a4.51,4.51,0,1,1-4.5-4.51A4.5,4.5,0,0,1,374.21,129.07Z"/><path class="cls-1" d="M200.7,68.63a4.51,4.51,0,1,1-4.51-4.51A4.51,4.51,0,0,1,200.7,68.63Z"/><path class="cls-1" d="M386.19,7a4.51,4.51,0,1,1-4.5-4.51A4.5,4.5,0,0,1,386.19,7Z"/><circle class="cls-1" cx="389.85" cy="145.1" r="4.5"/><path class="cls-1" d="M291.79,110.72a4.5,4.5,0,1,1-4.5-4.51A4.49,4.49,0,0,1,291.79,110.72Z"/><circle class="cls-1" cx="654.08" cy="203.77" r="4.5"/><path class="cls-1" d="M453.09,222.13a4.51,4.51,0,1,1-4.5-4.51A4.49,4.49,0,0,1,453.09,222.13Z"/><path class="cls-1" d="M91.14,413.71a4.51,4.51,0,1,1-4.51-4.51A4.51,4.51,0,0,1,91.14,413.71Z"/><path class="cls-1" d="M658.59,129.07a4.51,4.51,0,1,1-4.51-4.51A4.51,4.51,0,0,1,658.59,129.07Z"/><path class="cls-1" d="M687.22,166.13a4.51,4.51,0,1,1-4.51-4.5A4.51,4.51,0,0,1,687.22,166.13Z"/><path class="cls-1" d="M718.89,166.13a4.51,4.51,0,1,1-4.51-4.5A4.51,4.51,0,0,1,718.89,166.13Z"/><path class="cls-1" d="M736.5,202.74a4.51,4.51,0,1,1-4.5-4.51A4.51,4.51,0,0,1,736.5,202.74Z"/><path class="cls-1" d="M736.5,184a4.51,4.51,0,1,1-4.5-4.51A4.51,4.51,0,0,1,736.5,184Z"/><path class="cls-1" d="M133.92,476.2a4.51,4.51,0,1,1-4.51-4.51A4.51,4.51,0,0,1,133.92,476.2Z"/><path class="cls-1" d="M659.17,166.13a4.5,4.5,0,1,1-4.5-4.5A4.5,4.5,0,0,1,659.17,166.13Z"/><path class="cls-1" d="M309.48,91.75a4.51,4.51,0,1,1-4.51-4.5A4.51,4.51,0,0,1,309.48,91.75Z"/><circle class="cls-1" cx="396.72" cy="189.39" r="4.5"/><path class="cls-1" d="M401.22,158.45a4.51,4.51,0,1,1-4.5-4.5A4.51,4.51,0,0,1,401.22,158.45Z"/><circle class="cls-1" cx="369.5" cy="152.35" r="4.5"/><path class="cls-1" d="M465.93,254.44a4.51,4.51,0,1,1-4.51-4.5A4.5,4.5,0,0,1,465.93,254.44Z"/><circle class="cls-1" cx="345.62" cy="106.21" r="4.5"/><path class="cls-1" d="M403.37,211a4.51,4.51,0,1,1-4.51-4.5A4.5,4.5,0,0,1,403.37,211Z"/><path class="cls-1" d="M403.37,229.67a4.51,4.51,0,1,1-4.51-4.5A4.51,4.51,0,0,1,403.37,229.67Z"/><path class="cls-1" d="M361.53,202.06a4.51,4.51,0,1,1-4.5-4.5A4.5,4.5,0,0,1,361.53,202.06Z"/><circle class="cls-1" cx="365.2" cy="106.98" r="4.5"/><circle class="cls-1" cx="358.16" cy="39.17" r="4.5"/><circle class="cls-1" cx="278.72" cy="148.19" r="4.5"/><circle class="cls-1" cx="519.14" cy="433.46" r="4.5"/><path class="cls-1" d="M534.9,467.39a4.51,4.51,0,1,1-4.51-4.51A4.51,4.51,0,0,1,534.9,467.39Z"/><circle class="cls-1" cx="806.21" cy="6.97" r="4.5"/><circle class="cls-1" cx="232.22" cy="195.61" r="4.5"/><circle class="cls-1" cx="199.93" cy="218.21" r="4.5"/><path class="cls-1" d="M382.52,391.67a4.5,4.5,0,1,1-4.5-4.5A4.5,4.5,0,0,1,382.52,391.67Z"/><circle class="cls-1" cx="57.83" cy="503.15" r="4.5"/><circle class="cls-1" cx="90.22" cy="503.15" r="4.5"/><path class="cls-1" d="M83,521.06a4.5,4.5,0,1,1-4.5-4.5A4.5,4.5,0,0,1,83,521.06Z"/><path class="cls-1" d="M222.65,457.35a4.51,4.51,0,1,1-4.51-4.51A4.51,4.51,0,0,1,222.65,457.35Z"/><path class="cls-1" d="M165.4,262.31a4.51,4.51,0,1,1-4.5-4.5A4.5,4.5,0,0,1,165.4,262.31Z"/><path class="cls-1" d="M583,619.36a4.51,4.51,0,1,1-4.51-4.5A4.5,4.5,0,0,1,583,619.36Z"/><path class="cls-1" d="M567.61,637.54a4.51,4.51,0,1,1-4.5-4.51A4.51,4.51,0,0,1,567.61,637.54Z"/><circle class="cls-1" cx="557.82" cy="625.11" r="4.5"/><path class="cls-1" d="M484,588.43a4.51,4.51,0,1,1-4.51-4.51A4.51,4.51,0,0,1,484,588.43Z"/><circle class="cls-1" cx="333.48" cy="425.55" r="4.5"/><path class="cls-1" d="M363.24,478.51a4.51,4.51,0,1,1-4.5-4.51A4.51,4.51,0,0,1,363.24,478.51Z"/><path class="cls-1" d="M199.5,535.92a4.51,4.51,0,1,1-4.5-4.5A4.51,4.51,0,0,1,199.5,535.92Z"/><path class="cls-1" d="M332.23,473.67a4.51,4.51,0,1,1-4.51-4.51A4.51,4.51,0,0,1,332.23,473.67Z"/><path class="cls-1" d="M71.34,476.2a4.51,4.51,0,1,1-4.5-4.51A4.5,4.5,0,0,1,71.34,476.2Z"/><path class="cls-1" d="M98.62,476.2a4.51,4.51,0,1,1-4.51-4.51A4.51,4.51,0,0,1,98.62,476.2Z"/><circle class="cls-1" cx="410.47" cy="327.53" r="4.5"/><circle class="cls-1" cx="456.92" cy="313.45" r="4.5"/><path class="cls-1" d="M472.61,277.19a4.5,4.5,0,1,1-4.5-4.5A4.5,4.5,0,0,1,472.61,277.19Z"/><path class="cls-1" d="M456,339.76a4.51,4.51,0,1,1-4.5-4.5A4.49,4.49,0,0,1,456,339.76Z"/><circle class="cls-1" cx="428.5" cy="282.77" r="4.5"/><circle class="cls-1" cx="424" cy="360.53" r="4.5"/><circle class="cls-1" cx="413.3" cy="261.27" r="4.5"/><circle class="cls-1" cx="549.59" cy="527.04" r="4.5"/><circle class="cls-1" cx="558.6" cy="553.17" r="4.5"/><path class="cls-1" d="M736.5,426a4.51,4.51,0,1,1-4.5-4.5A4.51,4.51,0,0,1,736.5,426Z"/><path class="cls-1" d="M741,525.57a4.5,4.5,0,1,1-4.5-4.51A4.5,4.5,0,0,1,741,525.57Z"/><circle class="cls-1" cx="718.29" cy="513.47" r="4.5"/><path class="cls-1" d="M810.71,476.21a4.5,4.5,0,1,1-4.5-4.5A4.5,4.5,0,0,1,810.71,476.21Z"/><path class="cls-1" d="M767,476.21a4.51,4.51,0,1,1-4.5-4.5A4.51,4.51,0,0,1,767,476.21Z"/><circle class="cls-1" cx="695.58" cy="496.57" r="4.5"/><circle class="cls-1" cx="654.08" cy="628.79" r="4.5"/><path class="cls-1" d="M243.57,487.56a4.51,4.51,0,1,1-4.5-4.5A4.5,4.5,0,0,1,243.57,487.56Z"/><circle class="cls-1" cx="357.98" cy="501.08" r="4.5"/><circle class="cls-1" cx="336.73" cy="503.67" r="4.5"/><path class="cls-1" d="M341.23,535.92a4.5,4.5,0,1,1-4.5-4.5A4.5,4.5,0,0,1,341.23,535.92Z"/><circle class="cls-1" cx="137.38" cy="640.17" r="4.5"/><path class="cls-1" d="M109.19,624.85a4.5,4.5,0,1,1-4.5-4.5A4.5,4.5,0,0,1,109.19,624.85Z"/><path class="cls-1" d="M127.33,663.55a4.51,4.51,0,1,1-4.5-4.51A4.5,4.5,0,0,1,127.33,663.55Z"/><path class="cls-1" d="M118.6,605.1a4.51,4.51,0,1,1-4.5-4.5A4.5,4.5,0,0,1,118.6,605.1Z"/><circle class="cls-1" cx="160.67" cy="662.27" r="4.5"/><circle class="cls-1" cx="542.09" cy="617.57" r="4.5"/><path class="cls-1" d="M410.94,455.06a4.51,4.51,0,1,1-4.5-4.51A4.51,4.51,0,0,1,410.94,455.06Z"/><path class="cls-1" d="M362.84,450.55a4.51,4.51,0,1,1-4.5-4.5A4.51,4.51,0,0,1,362.84,450.55Z"/><circle class="cls-1" cx="449.08" cy="520.52" r="4.5"/><path class="cls-1" d="M482.07,473.67a4.51,4.51,0,1,1-4.5-4.51A4.5,4.5,0,0,1,482.07,473.67Z"/><circle class="cls-1" cx="654.08" cy="663.55" r="4.5"/><path class="cls-1" d="M463.63,598.89a4.51,4.51,0,1,1-4.51-4.5A4.51,4.51,0,0,1,463.63,598.89Z"/><path class="cls-1" d="M477.11,620.91a4.51,4.51,0,1,1-4.51-4.5A4.5,4.5,0,0,1,477.11,620.91Z"/><path class="cls-1" d="M484,641.5a4.51,4.51,0,1,1-4.51-4.5A4.5,4.5,0,0,1,484,641.5Z"/><path class="cls-1" d="M483,540.56a4.51,4.51,0,1,1-4.51-4.51A4.51,4.51,0,0,1,483,540.56Z"/><path class="cls-1" d="M407.78,535.92a4.51,4.51,0,1,1-4.5-4.5A4.5,4.5,0,0,1,407.78,535.92Z"/><path class="cls-1" d="M436.14,628.46a4.5,4.5,0,1,1-4.5-4.5A4.5,4.5,0,0,1,436.14,628.46Z"/><path class="cls-1" d="M416.79,565.74a4.51,4.51,0,1,1-4.5-4.51A4.5,4.5,0,0,1,416.79,565.74Z"/><circle class="cls-1" cx="420.53" cy="597.31" r="4.5"/><circle class="cls-1" cx="495.55" cy="663.55" r="4.5"/><circle class="cls-1" cx="468.1" cy="663.55" r="4.5"/><path class="cls-1" d="M567.61,663.55a4.51,4.51,0,1,1-4.5-4.51A4.51,4.51,0,0,1,567.61,663.55Z"/><circle class="cls-1" cx="541.68" cy="663.55" r="4.5"/><path class="cls-1" d="M524.76,663.55a4.5,4.5,0,1,1-4.5-4.51A4.5,4.5,0,0,1,524.76,663.55Z"/><circle class="cls-1" cx="507.32" cy="597.31" r="4.5"/><path class="cls-1" d="M504.56,561.23a4.51,4.51,0,1,1-4.51-4.5A4.51,4.51,0,0,1,504.56,561.23Z"/><path class="cls-1" d="M466.65,557.67a4.51,4.51,0,1,1-4.51-4.5A4.51,4.51,0,0,1,466.65,557.67Z"/><path class="cls-1" d="M522.46,527.69a4.51,4.51,0,1,1-4.51-4.5A4.5,4.5,0,0,1,522.46,527.69Z"/><path class="cls-1" d="M545.09,501.08a4.51,4.51,0,1,1-4.5-4.51A4.51,4.51,0,0,1,545.09,501.08Z"/><path class="cls-1" d="M736.5,663.55A4.51,4.51,0,1,1,732,659,4.51,4.51,0,0,1,736.5,663.55Z"/><circle class="cls-1" cx="440.65" cy="663.55" r="4.5"/><path class="cls-1" d="M572.11,583.92a4.5,4.5,0,1,1-4.5-4.5A4.5,4.5,0,0,1,572.11,583.92Z"/><path class="cls-1" d="M24.23,624a4.5,4.5,0,1,1-4.5-4.5A4.49,4.49,0,0,1,24.23,624Z"/><path class="cls-1" d="M362.84,535.92a4.51,4.51,0,1,1-4.5-4.5A4.51,4.51,0,0,1,362.84,535.92Z"/><circle class="cls-1" cx="436.14" cy="542.57" r="4.5"/><path class="cls-1" d="M86.25,612.2a4.51,4.51,0,1,1-4.51-4.5A4.5,4.5,0,0,1,86.25,612.2Z"/><path class="cls-1" d="M136.53,565.65a4.5,4.5,0,1,1-4.5-4.5A4.5,4.5,0,0,1,136.53,565.65Z"/><path class="cls-1" d="M136.53,589.11a4.5,4.5,0,1,1-4.5-4.5A4.49,4.49,0,0,1,136.53,589.11Z"/><path class="cls-1" d="M94.73,592.43a4.51,4.51,0,1,1-4.51-4.5A4.5,4.5,0,0,1,94.73,592.43Z"/><circle class="cls-1" cx="107.55" cy="573.79" r="4.5"/><path class="cls-1" d="M57.83,609.61a4.51,4.51,0,1,1-4.5-4.51A4.51,4.51,0,0,1,57.83,609.61Z"/><circle class="cls-1" cx="94.04" cy="663.55" r="4.5"/><circle class="cls-1" cx="181.6" cy="582.55" r="4.5"/><circle class="cls-1" cx="169.68" cy="627.71" r="4.5"/><path class="cls-1" d="M429.21,515.32a4.51,4.51,0,1,1-4.5-4.51A4.5,4.5,0,0,1,429.21,515.32Z"/><path class="cls-1" d="M429.21,475.08a4.51,4.51,0,1,1-4.5-4.5A4.5,4.5,0,0,1,429.21,475.08Z"/><circle class="cls-1" cx="197.01" cy="391.24" r="4.5"/><path class="cls-1" d="M235,156.86a4.51,4.51,0,1,1-4.5-4.51A4.51,4.51,0,0,1,235,156.86Z"/><path class="cls-1" d="M757,153.45a4.51,4.51,0,1,1-4.5-4.5A4.5,4.5,0,0,1,757,153.45Z"/><circle class="cls-1" cx="769.59" cy="204.77" r="4.5"/><circle class="cls-1" cx="759.15" cy="6.97" r="4.5"/><path class="cls-1" d="M309.48,170.12a4.51,4.51,0,1,1-4.51-4.51A4.51,4.51,0,0,1,309.48,170.12Z"/><path class="cls-1" d="M293.9,173.89a4.51,4.51,0,1,1-4.51-4.51A4.51,4.51,0,0,1,293.9,173.89Z"/><path class="cls-1" d="M762.46,456.17a4.51,4.51,0,1,1-4.51-4.51A4.5,4.5,0,0,1,762.46,456.17Z"/><circle class="cls-1" cx="695.58" cy="350.32" r="4.5"/><circle class="cls-1" cx="741.12" cy="286.35" r="4.5"/><circle class="cls-1" cx="278.2" cy="74.06" r="4.5"/><path class="cls-1" d="M350.13,68.63a4.51,4.51,0,1,1-4.51-4.51A4.51,4.51,0,0,1,350.13,68.63Z"/><path class="cls-1" d="M309.48,70.29a4.51,4.51,0,1,1-4.51-4.5A4.51,4.51,0,0,1,309.48,70.29Z"/><path class="cls-1" d="M296.07,60.36a4.51,4.51,0,1,1-4.51-4.51A4.51,4.51,0,0,1,296.07,60.36Z"/><path class="cls-1" d="M659.17,599a4.5,4.5,0,1,1-4.5-4.51A4.49,4.49,0,0,1,659.17,599Z"/><path class="cls-1" d="M659.17,575.29a4.5,4.5,0,1,1-4.5-4.5A4.5,4.5,0,0,1,659.17,575.29Z"/><path class="cls-1" d="M733.49,585a4.51,4.51,0,1,1-4.5-4.5A4.51,4.51,0,0,1,733.49,585Z"/><circle class="cls-1" cx="717.22" cy="565.74" r="4.5"/><circle class="cls-1" cx="710.51" cy="663.55" r="4.5"/><circle class="cls-1" cx="710.51" cy="609.01" r="4.5"/><circle class="cls-1" cx="676.14" cy="623.86" r="4.5"/><path class="cls-1" d="M768.41,421.49a4.5,4.5,0,1,1-4.5-4.5A4.49,4.49,0,0,1,768.41,421.49Z"/><path class="cls-1" d="M330,142a4.51,4.51,0,1,1-4.5-4.51A4.51,4.51,0,0,1,330,142Z"/><circle class="cls-1" cx="253.57" cy="7.23" r="4.5"/><circle class="cls-1" cx="281.67" cy="7.23" r="4.5"/><circle class="cls-1" cx="654.08" cy="92.13" r="4.5"/><path class="cls-1" d="M186.27,449.26a4.5,4.5,0,1,1-4.5-4.5A4.5,4.5,0,0,1,186.27,449.26Z"/><circle class="cls-1" cx="130.1" cy="386.74" r="4.5"/><path class="cls-1" d="M186.27,404.78a4.5,4.5,0,1,1-4.5-4.51A4.49,4.49,0,0,1,186.27,404.78Z"/><circle class="cls-1" cx="312.74" cy="6.52" r="4.5"/><circle class="cls-1" cx="353.66" cy="6.97" r="4.5"/><circle class="cls-1" cx="717.02" cy="78.56" r="4.5"/><path class="cls-1" d="M706.91,51.11a4.51,4.51,0,1,1-4.5-4.51A4.51,4.51,0,0,1,706.91,51.11Z"/><circle class="cls-1" cx="98.55" cy="378.83" r="4.5"/><circle class="cls-1" cx="191.74" cy="235.12" r="4.5"/><path class="cls-1" d="M119.49,323a4.51,4.51,0,1,1-4.51-4.5A4.5,4.5,0,0,1,119.49,323Z"/><circle class="cls-1" cx="503.78" cy="385.05" r="4.5"/><path class="cls-1" d="M463,358.59a4.51,4.51,0,1,1-4.5-4.5A4.5,4.5,0,0,1,463,358.59Z"/><path class="cls-1" d="M443.76,376.74a4.5,4.5,0,1,1-4.5-4.5A4.5,4.5,0,0,1,443.76,376.74Z"/><circle class="cls-1" cx="654.08" cy="393.66" r="4.5"/><path class="cls-1" d="M693.34,417a4.51,4.51,0,1,1-4.51-4.51A4.51,4.51,0,0,1,693.34,417Z"/><circle class="cls-1" cx="707.5" cy="386.57" r="4.5"/><circle class="cls-1" cx="431.17" cy="302.2" r="4.5"/><path class="cls-1" d="M659.17,428.67a4.5,4.5,0,1,1-4.5-4.51A4.49,4.49,0,0,1,659.17,428.67Z"/><circle class="cls-1" cx="654.08" cy="320.15" r="4.5"/><circle class="cls-1" cx="654.08" cy="346.52" r="4.5"/><circle class="cls-1" cx="678.04" cy="361.23" r="4.5"/><circle class="cls-1" cx="186.37" cy="101.71" r="4.5"/><path class="cls-1" d="M51.26,536.05a4.51,4.51,0,1,1-4.51-4.5A4.51,4.51,0,0,1,51.26,536.05Z"/><circle class="cls-1" cx="42.25" cy="663.55" r="4.5"/><circle class="cls-1" cx="66.84" cy="663.55" r="4.5"/><path class="cls-1" d="M151.66,446.05a4.5,4.5,0,1,1-4.5-4.51A4.49,4.49,0,0,1,151.66,446.05Z"/><path class="cls-1" d="M33.24,587.93a4.51,4.51,0,1,1-4.5-4.51A4.5,4.5,0,0,1,33.24,587.93Z"/><circle class="cls-1" cx="76.71" cy="556.73" r="4.5"/><circle class="cls-1" cx="57.83" cy="557.82" r="4.5"/><path class="cls-1" d="M11,662.27a4.51,4.51,0,1,1-4.51-4.51A4.51,4.51,0,0,1,11,662.27Z"/><circle class="cls-1" cx="394.36" cy="415.62" r="4.5"/><path class="cls-1" d="M133,525.57a4.51,4.51,0,1,1-4.5-4.51A4.51,4.51,0,0,1,133,525.57Z"/><circle class="cls-1" cx="145.12" cy="500.41" r="4.5"/><path class="cls-1" d="M196.71,467.19a4.51,4.51,0,1,1-4.5-4.51A4.5,4.5,0,0,1,196.71,467.19Z"/><circle class="cls-1" cx="173.52" cy="278.86" r="4.5"/><circle class="cls-1" cx="277.91" cy="465.27" r="4.5"/><path class="cls-1" d="M205,418.21a4.51,4.51,0,1,1-4.5-4.5A4.49,4.49,0,0,1,205,418.21Z"/><path class="cls-1" d="M188.9,364a4.51,4.51,0,1,1-4.5-4.5A4.51,4.51,0,0,1,188.9,364Z"/><path class="cls-1" d="M251.51,518.5A4.51,4.51,0,1,1,247,514,4.51,4.51,0,0,1,251.51,518.5Z"/><circle class="cls-1" cx="107.55" cy="347.64" r="4.5"/><circle class="cls-1" cx="429.47" cy="214.43" r="4.5"/><circle class="cls-1" cx="195.26" cy="166.27" r="4.5"/><path class="cls-1" d="M190.88,133.66a4.51,4.51,0,1,1-4.51-4.5A4.51,4.51,0,0,1,190.88,133.66Z"/><path class="cls-1" d="M232.73,382.23a4.51,4.51,0,1,1-4.5-4.5A4.51,4.51,0,0,1,232.73,382.23Z"/><path class="cls-1" d="M179.74,605.69a4.51,4.51,0,1,1-4.51-4.5A4.51,4.51,0,0,1,179.74,605.69Z"/><path class="cls-1" d="M178.69,512.74a4.51,4.51,0,1,1-4.51-4.5A4.5,4.5,0,0,1,178.69,512.74Z"/><path class="cls-1" d="M343.42,179.42a4.5,4.5,0,1,1-4.5-4.5A4.5,4.5,0,0,1,343.42,179.42Z"/><path class="cls-1" d="M394.36,512.68a4.51,4.51,0,1,1-4.51-4.51A4.5,4.5,0,0,1,394.36,512.68Z"/><circle class="cls-1" cx="685.97" cy="125.73" r="4.5"/><circle class="cls-1" cx="749.68" cy="202.74" r="4.5"/><path class="cls-1" d="M763.6,268.05a4.51,4.51,0,1,1-4.5-4.51A4.5,4.5,0,0,1,763.6,268.05Z"/><path class="cls-1" d="M810.71,158.61a4.5,4.5,0,1,1-4.5-4.51A4.5,4.5,0,0,1,810.71,158.61Z"/><circle class="cls-1" cx="732.91" cy="352.82" r="4.5"/><path class="cls-1" d="M736.5,400.58a4.51,4.51,0,1,1-4.5-4.5A4.51,4.51,0,0,1,736.5,400.58Z"/><circle class="cls-1" cx="772.61" cy="350.25" r="4.5"/><circle class="cls-1" cx="780.73" cy="562.38" r="4.5"/><circle class="cls-1" cx="806.21" cy="663.55" r="4.5"/><circle class="cls-1" cx="780.73" cy="502.58" r="4.5"/><path class="cls-1" d="M778.44,663.55a4.5,4.5,0,1,1-4.5-4.51A4.5,4.5,0,0,1,778.44,663.55Z"/><path class="cls-1" d="M763.6,227.12a4.51,4.51,0,1,1-4.5-4.5A4.51,4.51,0,0,1,763.6,227.12Z"/><path class="cls-1" d="M739.24,229.8a4.51,4.51,0,1,1-4.51-4.51A4.51,4.51,0,0,1,739.24,229.8Z"/><circle class="cls-1" cx="712.51" cy="246.22" r="4.5"/><path class="cls-1" d="M717,270.47a4.51,4.51,0,1,1-4.51-4.51A4.51,4.51,0,0,1,717,270.47Z"/><path class="cls-1" d="M780.36,225.29a4.51,4.51,0,1,1-4.5-4.5A4.51,4.51,0,0,1,780.36,225.29Z"/><path class="cls-1" d="M773.77,174.62a4.51,4.51,0,1,1-4.51-4.5A4.5,4.5,0,0,1,773.77,174.62Z"/><circle class="cls-1" cx="806.03" cy="342.02" r="4.5"/><path class="cls-1" d="M771.35,328.23a4.5,4.5,0,1,1-4.5-4.5A4.5,4.5,0,0,1,771.35,328.23Z"/><path class="cls-1" d="M810.53,363.09a4.5,4.5,0,1,1-4.5-4.5A4.5,4.5,0,0,1,810.53,363.09Z"/><path class="cls-1" d="M790.35,371.36a4.51,4.51,0,1,1-4.51-4.51A4.51,4.51,0,0,1,790.35,371.36Z"/><circle class="cls-1" cx="791.72" cy="294.36" r="4.5"/><path class="cls-1" d="M810.71,316.14a4.5,4.5,0,1,1-4.5-4.5A4.5,4.5,0,0,1,810.71,316.14Z"/><circle class="cls-1" cx="806.21" cy="288.99" r="4.5"/><circle class="cls-1" cx="806.21" cy="253.67" r="4.5"/><circle class="cls-1" cx="806.21" cy="389.55" r="4.5"/><path class="cls-1" d="M810.53,410a4.5,4.5,0,1,1-4.5-4.5A4.49,4.49,0,0,1,810.53,410Z"/><circle class="cls-1" cx="736.5" cy="456.17" r="4.5"/><path class="cls-1" d="M810.53,431.69a4.5,4.5,0,1,1-4.5-4.51A4.5,4.5,0,0,1,810.53,431.69Z"/><circle class="cls-1" cx="806.03" cy="456.17" r="4.5"/><circle class="cls-1" cx="806.03" cy="547.62" r="4.5"/><circle class="cls-1" cx="806.21" cy="511.37" r="4.5"/><circle class="cls-1" cx="806.21" cy="583.86" r="4.5"/><circle class="cls-1" cx="806.03" cy="608.79" r="4.5"/><circle class="cls-1" cx="786.64" cy="608.79" r="4.5"/><path class="cls-1" d="M810.53,644.2a4.5,4.5,0,1,1-4.5-4.51A4.5,4.5,0,0,1,810.53,644.2Z"/><circle class="cls-1" cx="768.1" cy="307.2" r="4.5"/><circle class="cls-1" cx="806.21" cy="201.66" r="4.5"/><circle class="cls-1" cx="682.71" cy="78.94" r="4.5"/><circle class="cls-1" cx="682.71" cy="106.25" r="4.5"/><path class="cls-1" d="M765.52,88.81a4.5,4.5,0,1,1-4.5-4.5A4.5,4.5,0,0,1,765.52,88.81Z"/><circle class="cls-1" cx="761.02" cy="116.13" r="4.5"/><path class="cls-1" d="M791.08,137.48a4.51,4.51,0,1,1-4.5-4.5A4.51,4.51,0,0,1,791.08,137.48Z"/><path class="cls-1" d="M791.08,164.8a4.51,4.51,0,1,1-4.5-4.5A4.5,4.5,0,0,1,791.08,164.8Z"/><circle class="cls-1" cx="669.58" cy="55.61" r="4.5"/><path class="cls-1" d="M78.06,450.55a4.51,4.51,0,1,1-4.51-4.5A4.51,4.51,0,0,1,78.06,450.55Z"/><path class="cls-1" d="M135.78,425.56a4.51,4.51,0,1,1-4.51-4.51A4.5,4.5,0,0,1,135.78,425.56Z"/><polyline class="cls-1" points="257.37 200.12 257.37 177.39 247.17 167.18 247.17 145.09"/><polyline class="cls-1" points="227.71 195.61 221.68 195.61 202.54 214.76"/><polyline class="cls-1" points="278.72 200.12 278.72 181.89 263.84 167.02 263.84 104.39 277.96 90.27 277.96 78.56"/><polyline class="cls-1" points="300.07 200.12 300.07 188.46 316.09 172.44 316.09 139.34 305.39 128.65 305.39 96.26"/><polyline class="cls-1" points="304.97 165.61 304.97 150.2 287.29 132.52 287.29 115.56"/><polyline class="cls-1" points="321.42 200.12 321.42 179.42 334.82 166.02 334.82 124.56 322.05 111.79 322.05 47.3 353.66 15.69 353.66 11.47"/><polyline class="cls-1" points="342.76 200.12 342.76 194.8 355.46 182.1"/><polyline class="cls-1" points="341.12 174.92 349.14 166.89 349.14 141.99"/><polyline class="cls-1" points="312.74 11.03 312.74 23.82 305.26 31.3 305.26 65.79"/><polyline class="cls-1" points="281.67 11.73 281.67 23.23 291.56 33.12 291.56 55.85"/><polyline class="cls-1" points="381.69 11.47 381.69 38.41 364.73 55.37 364.73 102.47"/><polyline class="cls-1" points="345.62 64.12 345.62 50.68 354.52 41.78"/><line class="cls-1" x1="345.62" y1="101.71" x2="345.62" y2="73.13"/><polyline class="cls-1" points="389.85 48.16 382.13 55.89 382.13 118.52 373.81 126.83"/><polyline class="cls-1" points="401.93 78.56 401.93 89.67 389.49 102.11 389.49 140.59"/><polyline class="cls-1" points="682.71 11.01 682.71 51.11 700.64 69.03 700.64 110.72 688.97 122.39"/><polyline class="cls-1" points="657.93 10.06 663.23 15.35 663.23 36.95 657.3 42.88"/><polyline class="cls-1" points="657.83 89.63 669.58 77.88 669.58 59.23"/><polyline class="cls-1" points="408.56 105.1 401.02 112.63 401.02 129.07"/><polyline class="cls-1" points="373.21 154.71 381.56 163.06 381.56 192.97 396.08 207.49"/><polyline class="cls-1" points="421 142.3 413.31 150 413.31 187.4"/><line class="cls-1" x1="396.72" y1="162.96" x2="396.72" y2="184.89"/><polyline class="cls-1" points="436.74 186.63 415.4 207.97 415.4 241.12 405.28 251.24 394.11 251.24"/><polyline class="cls-1" points="394.11 272.81 431.65 272.81 449.31 255.16 456.92 255.16"/><polyline class="cls-1" points="445.27 225.17 431.17 239.27 431.17 249.69"/><polyline class="cls-1" points="429.47 218.94 429.47 226.63 421.61 234.49 421.61 254.44 416.77 259.28"/><polyline class="cls-1" points="361.53 202.06 372.07 202.06 396.36 226.35"/><polyline class="cls-1" points="394.11 294.16 405.97 294.16 417.59 282.54 424 282.54"/><polyline class="cls-1" points="463.74 278.26 455.23 278.26 434.43 299.06"/><polyline class="cls-1" points="394.11 315.51 438.22 315.51 453.88 299.85 471.79 299.85"/><polyline class="cls-1" points="394.11 336.86 416.77 336.86 438.47 358.56 453.97 358.56"/><polyline class="cls-1" points="478.47 323.03 468.11 323.03 454.9 336.24"/><polyline class="cls-1" points="453.97 316.85 442.79 328.03 414.98 328.03"/><polyline class="cls-1" points="489.81 355.28 468.34 376.74 443.76 376.74"/><polyline class="cls-1" points="419.5 360.53 409.06 360.53 381.13 388.46"/><polyline class="cls-1" points="414.98 382.32 424.96 392.3 497.44 392.3 501.16 388.58"/><polyline class="cls-1" points="507.32 411.68 491.05 411.68 483.73 418.99 483.73 435.11"/><polyline class="cls-1" points="477.57 406.54 477.57 414.72 465.8 426.49 465.8 461.85 459.1 468.55 459.1 478.56"/><polyline class="cls-1" points="516.33 436.98 495.27 458.03 495.27 483.01"/><polyline class="cls-1" points="527.31 470.66 511.12 486.86 511.12 498.65"/><polyline class="cls-1" points="537.32 504.18 529 512.5 505.8 512.5 481.44 536.86"/><polyline class="cls-1" points="477.57 478.17 477.57 492.02 452.22 517.37"/><polyline class="cls-1" points="342.76 388.21 342.76 400.69 358.12 416.05 358.12 446.05"/><polyline class="cls-1" points="321.42 388.21 321.42 408.75 311.15 419.01 311.15 475.29 294.59 491.85 294.59 531.55"/><polyline class="cls-1" points="300.07 388.21 300.07 400.4 287.44 413.02 287.44 447.54 293.67 453.77"/><polyline class="cls-1" points="333.48 430.06 333.48 452.84 356.21 475.57"/><polyline class="cls-1" points="394.36 420.13 394.36 431.63 382.28 443.7 382.28 492.02 389.12 498.86 389.12 508.18"/><polyline class="cls-1" points="403.28 531.42 403.28 494.69 393.3 484.71 393.3 470.66 404.98 458.98"/><polyline class="cls-1" points="411.94 409.9 411.94 420.13 426.27 434.47"/><polyline class="cls-1" points="449.75 411.05 449.75 446.95 442.07 454.62"/><polyline class="cls-1" points="327.72 478.17 327.72 488.72 316.57 499.88 316.57 531.55"/><line class="cls-1" x1="358.34" y1="531.42" x2="358.34" y2="505.58"/><line class="cls-1" x1="336.73" y1="531.42" x2="336.73" y2="508.24"/><polyline class="cls-1" points="269.32 531.42 269.32 515.32 286.5 498.14 286.5 483.01"/><polyline class="cls-1" points="278.72 388.21 278.72 402.78 267.95 413.55 267.95 457.35 241.37 483.93"/><polyline class="cls-1" points="274.85 469.16 256.07 487.94 256.07 510.08 250.33 515.83"/><polyline class="cls-1" points="230.06 531.42 230.06 519.75 219.21 508.9 219.21 483.01 237.13 465.08 237.13 413.33 257.3 393.16 257.3 388.21"/><line class="cls-1" x1="253.4" y1="449.26" x2="253.4" y2="427.22"/><polyline class="cls-1" points="278.72 152.69 278.72 162.96 286.61 170.84"/><polyline class="cls-1" points="253.57 11.73 253.57 38.41 265.5 50.34 265.5 75.65 230.46 110.69 230.46 152.35"/><polyline class="cls-1" points="219.57 11.47 238.74 30.64 238.74 55.85 244.74 61.85 244.74 71.14"/><polyline class="cls-1" points="210.56 39.17 224.21 52.82 224.21 64.12"/><polyline class="cls-1" points="199.93 71.14 220.78 92 220.78 115.56 212.65 123.69 212.65 173.88"/><polyline class="cls-1" points="210.56 106.21 210.56 111.85 195.26 127.15 195.26 161.77"/><line class="cls-1" x1="186.37" y1="106.21" x2="186.37" y2="129.16"/><polyline class="cls-1" points="172.82 157.63 181.66 166.48 181.66 180.93 194.54 193.8"/><polyline class="cls-1" points="160.9 191.71 182.51 213.32 182.51 225.99 188.46 231.94"/><polyline class="cls-1" points="206.02 251.47 187.24 251.47 172.6 236.83 147.16 236.83"/><polyline class="cls-1" points="206.02 272.81 194.14 272.81 183.64 262.31 165.18 262.31"/><polyline class="cls-1" points="206.02 294.16 181.9 294.16 172.52 303.54 126.55 303.54"/><polyline class="cls-1" points="169.01 278.86 146.24 278.86 137.56 270.18"/><polyline class="cls-1" points="206.02 315.51 179.89 315.51 167.45 327.95"/><line class="cls-1" x1="142.66" y1="323.03" x2="119.49" y2="323.03"/><polyline class="cls-1" points="206.02 336.86 181.3 336.86 170.28 347.88 112.06 347.88"/><polyline class="cls-1" points="201.52 359.33 201.52 365.78 217.97 382.23 223.72 382.23"/><polyline class="cls-1" points="103.05 378.83 110.48 378.83 125.36 363.95 151.66 363.95"/><polyline class="cls-1" points="184.4 368.46 184.4 375.53 173.81 386.11 134.6 386.11"/><polyline class="cls-1" points="218.9 418.21 218.9 404.57 205.67 391.35 201.52 391.35"/><line class="cls-1" x1="181.77" y1="409.28" x2="181.77" y2="444.76"/><polyline class="cls-1" points="200.49 422.71 200.49 442.77 214.35 456.63"/><polyline class="cls-1" points="195 531.42 195 512.68 205.27 502.4 205.27 480.37 195.24 470.34"/><polyline class="cls-1" points="91.14 413.7 118.32 413.7 127.91 423.3"/><polyline class="cls-1" points="147.16 450.55 147.16 461.85 173.53 488.22 173.53 508.24"/><polyline class="cls-1" points="78.06 450.55 103.05 450.55 126.34 473.84"/><polyline class="cls-1" points="145.12 504.91 145.12 516.21 168.42 539.51 168.42 570.27 178 579.85"/><polyline class="cls-1" points="165.18 627.72 152.46 627.72 130.44 605.69 118.6 605.69"/><line class="cls-1" x1="71.34" y1="476.2" x2="89.61" y2="476.2"/><polyline class="cls-1" points="110.48 494.61 110.48 508.24 89.89 528.82 89.89 587.93"/><polyline class="cls-1" points="128.5 530.07 128.5 540.43 148.23 560.16 148.23 579.85 171.59 603.21"/><line class="cls-1" x1="132.03" y1="570.16" x2="132.03" y2="584.61"/><line class="cls-1" x1="107.55" y1="540.43" x2="107.55" y2="569.29"/><line class="cls-1" x1="157.53" y1="659.04" x2="141.2" y2="642.71"/><polyline class="cls-1" points="122.83 659.04 122.83 641.3 108.7 627.18"/><polyline class="cls-1" points="94.04 659.04 94.04 649.26 81.74 636.96 81.74 616.7"/><polyline class="cls-1" points="42.25 659.04 42.25 637.87 53.51 626.61 53.51 614.04"/><polyline class="cls-1" points="66.84 659.04 66.84 605.69 76.71 595.82 76.71 561.23"/><line class="cls-1" x1="85.72" y1="503.15" x2="62.33" y2="503.15"/><polyline class="cls-1" points="51.26 536.05 63.14 536.05 75.27 523.92"/><polyline class="cls-1" points="33.24 587.93 47.88 587.93 57.67 578.14 57.67 562.33"/><polyline class="cls-1" points="10.45 660.1 31.38 639.18 31.38 631.55 24.45 624.63"/><line class="cls-1" x1="424.71" y1="510.81" x2="424.71" y2="479.58"/><line class="cls-1" x1="416.03" y1="563.23" x2="433.56" y2="545.7"/><polyline class="cls-1" points="424.22 594.73 447.88 571.07 491.77 571.07 498.11 564.73"/><polyline class="cls-1" points="546.21 530.01 526.36 549.87 526.36 579.42 511.39 594.39"/><polyline class="cls-1" points="555.85 556.73 544.87 567.72 544.87 589.78 520.26 614.38 520.26 659.04"/><polyline class="cls-1" points="479.49 592.93 479.49 605.1 495.67 621.29 495.67 659.28"/><polyline class="cls-1" points="436.14 628.47 444.58 628.47 459.12 613.92 459.12 602.71"/><polyline class="cls-1" points="514.72 530.82 487.43 558.1 466.65 558.1"/><polyline class="cls-1" points="442.96 659.69 448.84 653.81 448.84 643.29 468.81 623.32"/><polyline class="cls-1" points="468.1 659.04 468.1 651.94 475.84 644.21"/><line class="cls-1" x1="541.68" y1="659.04" x2="541.68" y2="621.69"/><polyline class="cls-1" points="565.64 587.97 557.67 595.94 557.67 620.91"/><polyline class="cls-1" points="590.61 660.22 578.3 647.91 578.3 623.86"/><line class="cls-1" x1="563.11" y1="659.04" x2="563.11" y2="642.04"/><polyline class="cls-1" points="713.66 11.47 713.66 24.27 732.78 43.39 732.78 98.72 727.66 103.85"/><polyline class="cls-1" points="717.02 74.06 717.02 62.17 706.74 51.89"/><polyline class="cls-1" points="759.15 11.47 759.15 59.23 779.38 79.46 779.38 85.13"/><polyline class="cls-1" points="750.14 51.11 750.14 92.13 743.06 99.2 743.06 127.27 752.45 136.65 752.45 149.55"/><polyline class="cls-1" points="803.56 10.6 786.67 27.49 786.67 66.7 794.16 74.18 794.16 100.33 769.59 124.89 769.59 170.12"/><line class="cls-1" x1="806.21" y1="55.61" x2="806.21" y2="111.06"/><polyline class="cls-1" points="802.88 161.63 784.29 180.22 784.29 216.39 778.78 221.9"/><polyline class="cls-1" points="732 179.45 732 163.11 717.61 148.73 717.61 130.23"/><polyline class="cls-1" points="734.29 146.16 734.29 152.13 749.94 167.79 749.94 198.23"/><polyline class="cls-1" points="658.59 129.07 667.98 129.07 701.1 162.19 701.1 194.21 732.49 225.59"/><line class="cls-1" x1="682.71" y1="83.44" x2="682.71" y2="101.75"/><line class="cls-1" x1="761.02" y1="93.32" x2="761.02" y2="111.63"/><line class="cls-1" x1="786.58" y1="141.99" x2="786.58" y2="160.3"/><line class="cls-1" x1="659.17" y1="166.13" x2="678.21" y2="166.13"/><polyline class="cls-1" points="658.59 203.76 669.58 203.76 709.28 243.46"/><polyline class="cls-1" points="690.47 204.76 741.01 255.31 741.01 281.85"/><line class="cls-1" x1="759.1" y1="231.63" x2="759.1" y2="263.59"/><polyline class="cls-1" points="803.56 206.16 792.31 217.41 792.31 232.85 777 248.16 777 285.35 768.44 293.91 768.44 302.7"/><polyline class="cls-1" points="714.38 170.64 714.38 185.95 728.4 199.97"/><line class="cls-1" x1="769.59" y1="200.26" x2="769.59" y2="179.45"/><polyline class="cls-1" points="659.17 229.8 668.69 229.8 707.78 268.89"/><polyline class="cls-1" points="659.17 257.72 667.38 257.72 700.11 290.44 707.23 290.44"/><line class="cls-1" x1="658.59" y1="290.86" x2="679.43" y2="290.86"/><polyline class="cls-1" points="802.88 256.69 791.62 267.95 791.62 289.85"/><polyline class="cls-1" points="745.63 320.94 745.63 335.26 757.6 347.23 757.6 386.57 781.56 410.53 801.53 410.53"/><polyline class="cls-1" points="801.71 389.55 793.01 389.55 784.92 381.46 784.92 375.86"/><polyline class="cls-1" points="801.53 363.09 791.72 363.09 779.62 350.99 777.11 350.99"/><line class="cls-1" x1="806.21" y1="293.5" x2="806.21" y2="311.64"/><polyline class="cls-1" points="801.53 342.02 795.2 342.02 781.41 328.23 771.35 328.23"/><polyline class="cls-1" points="728.4 307.87 728.4 328.23 708.62 348.02 708.62 382.06"/><polyline class="cls-1" points="707.23 313.74 707.23 325.2 695.25 337.18 695.25 345.82"/><polyline class="cls-1" points="658.59 320.15 665.74 320.15 677.56 331.96 677.56 356.73"/><polyline class="cls-1" points="656.6 350.25 665.28 358.93 665.28 369.36 692 396.08"/><line class="cls-1" x1="732.91" y1="377.87" x2="732.91" y2="357.32"/><polyline class="cls-1" points="801.53 431.69 786.44 431.69 774.26 443.86 750.13 443.86 735.3 429.04"/><polyline class="cls-1" points="759.41 420.69 750.64 420.69 734.58 404.63"/><polyline class="cls-1" points="714.14 448.13 714.14 433.17 706.88 425.91 706.88 416.99"/><polyline class="cls-1" points="658.59 393.66 666.04 393.66 685.81 413.43"/><polyline class="cls-1" points="659.17 428.67 670.82 428.67 693.01 450.86 693.01 466.04 711.83 484.86"/><line class="cls-1" x1="762.46" y1="456.17" x2="801.53" y2="456.17"/><polyline class="cls-1" points="679.82 457.14 679.82 470.66 695.79 486.63 695.79 492.07"/><polyline class="cls-1" points="660.37 463 664.4 463 674.1 472.7 674.1 504.18 683.4 513.47 714.14 513.47"/><polyline class="cls-1" points="658.59 515.32 667.88 515.32 684.54 531.98 700.09 531.98"/><polyline class="cls-1" points="736.5 460.67 736.5 481.76 744.84 490.1 744.84 515.32 738.8 521.36"/><polyline class="cls-1" points="801.71 476.21 792.01 476.21 780.73 487.49 780.73 498.07"/><line class="cls-1" x1="762.46" y1="480.72" x2="762.46" y2="534.1"/><polyline class="cls-1" points="801.71 511.37 794.6 511.37 780.57 525.4 780.57 558.55"/><line class="cls-1" x1="806.03" y1="552.12" x2="806.03" y2="579.36"/><polyline class="cls-1" points="736.5 549.56 736.5 561.23 762.85 587.58 762.85 614.13"/><polyline class="cls-1" points="801.71 583.86 781.34 583.86 760.81 563.33"/><line class="cls-1" x1="806.03" y1="613.3" x2="806.03" y2="639.69"/><polyline class="cls-1" points="803.18 660.22 786.64 643.69 786.64 613.3"/><polyline class="cls-1" points="773.94 659.04 773.94 648.7 747.62 622.38 747.62 601.51 733.02 586.91"/><polyline class="cls-1" points="659.17 551.58 703.29 551.58 714.36 562.64"/><polyline class="cls-1" points="659.17 575.29 690.36 575.29 701.25 586.18"/><polyline class="cls-1" points="732 659.04 732 629.62 714.23 611.85"/><polyline class="cls-1" points="710.51 659.04 710.51 632.15 676.9 598.54 659.17 598.54"/><polyline class="cls-1" points="693.58 659.04 693.58 642.04 678.58 627.05"/><line class="cls-1" x1="654.08" y1="633.3" x2="654.08" y2="659.04"/><path class="cls-2" d="M271.76,302.35a2.24,2.24,0,1,1,2.24,2.34A2.26,2.26,0,0,1,271.76,302.35Z"/><path class="cls-2" d="M281.74,286h2.55l.26,2.63h.1c1.74-1.71,3.61-3.08,6.11-3.08,3.85,0,5.57,2.48,5.57,7.13v11.55h-3.08V293.08c0-3.39-1-4.84-3.44-4.84-1.87,0-3.16.95-5,2.8v13.2h-3.08Z"/><path class="cls-2" d="M305.66,294.72,300.15,286h3.34l2.44,4c.56,1,1.18,2,1.79,3h.15c.55-1,1.09-2,1.64-3l2.23-4H315l-5.52,9,6,9.19h-3.35L309.37,300c-.64-1.1-1.3-2.22-2-3.27h-.15c-.63,1-1.22,2.16-1.85,3.27l-2.47,4.24H299.7Z"/><path class="cls-2" d="M318.62,298.6V288.52h-2.71v-2.34l2.85-.17.37-5.12h2.58V286h4.94v2.51h-4.94v10.13c0,2.23.72,3.53,2.82,3.53a6.26,6.26,0,0,0,2.08-.49l.59,2.32a10.87,10.87,0,0,1-3.38.68C319.94,304.69,318.62,302.23,318.62,298.6Z"/></g></g></svg>