<svg xmlns="http://www.w3.org/2000/svg" xmlns:xlink="http://www.w3.org/1999/xlink" viewBox="0 0 1403.49 465.24"><defs><style>.cls-1{fill:none;}.cls-2{clip-path:url(#clip-path);}.cls-3{fill:url(#linear-gradient);}.cls-4{fill:#fff;}</style><clipPath id="clip-path"><path class="cls-1" d="M328.32,33.66H319l1.67-5.34h6Zm256.17,0a22,22,0,0,0-12.55-5.34H412.3v5.34H584.49M330.57,40.87h-13.8l-1.67,5.34h17.14Zm261.2,5.34A21,21,0,0,0,590,40.87H412.3v5.34H591.77M334.48,53.42H312.86l-1.67,5.34h25Zm257.71,0H412.3v5.34H592.19ZM338.4,66H308.94l-1.65,5.34h32.76Zm253.79,0H412.3v5.34H592.19ZM342.3,78.52H305.05l-1.67,5.34H344Zm249.89,0H412.3v5.34H592.19Zm-246,12.55H301.13l-1.67,5.34h48.42Zm246,0H412.3v5.34H592.19ZM350.13,103.62H297.21L295.54,109H351.8Zm242.06,0H412.3V109H592.19ZM354.05,116.17H293.3l-1.65,5.34h64Zm238.14,0H412.3v5.34H592.19ZM358,129H289.31l-1.67,5.34H359.7Zm234.16,0H412.3v5.34H592.19ZM362,141.81H285.31l-1.65,5.34h80Zm51.07,0a21.36,21.36,0,0,0,2.25,5.34H592.19v-5.34ZM366,154.62h-84.7L279.65,160h88Zm56.52,0a22,22,0,0,0,12,3.54H592.19v-3.54ZM370,167.44h-92.7l-1.65,5.34h96Zm4,12.82H273.34l-1.67,5.34h104Zm4,12.82H269.33l-1.65,5.34h112Zm4,12.81H265.35l-1.67,5.35h120Zm210.2,0H412.3v5.35H592.19ZM386,218.71H261.36l-1.67,5.34h128Zm206.19,0H412.3v5.34H592.19Zm-202.3,12.55H257.45l-1.67,5.34H391.56Zm202.3,0H412.3v5.34H592.19ZM393.81,243.81H253.53l-1.67,5.34H395.48Zm198.38,0H412.3v5.34H592.19ZM397.73,256.36H249.61l-1.67,5.34H399.4Zm194.46,0H412.3v5.34H592.19ZM401.64,268.91H245.7l-1.65,5.34H403.29Zm190.55,0H412.3v5.34H592.19ZM405.54,281.46H241.8l-1.67,5.34H407.21Zm186.65,0H412.3v5.34H592.19ZM409.45,294H237.89l-1.67,5.35h174.9Zm182.74,0H412.3v5.35H592.19ZM233.48,306.57l.25.8-1.43,4.54H592.19v-5.34Zm-3.4,12.54-1.67,5.35h5.34l1.67-5.35Zm7.29,0,1.67,5.35H592.19v-5.35Zm-11.21,12.56L224.49,337h5.34l1.67-5.34Zm15.13,0L243,337H592.19v-5.34Zm-19,12.55-1.67,5.34h5.37l1.64-5.34Zm23,0,1.67,5.34H592.19v-5.34Zm-27,12.81-1.67,5.34h5.34L223.6,357Zm31,0,1.65,5.34H592.19V357Zm-35,12.82-1.65,5.34H218l1.65-5.34Zm38.94,0,1.67,5.34H592.19v-5.34Zm-42.93,12.82L208.6,388h5.34l1.67-5.34Zm46.93,0,1.67,5.34H592.19v-5.34Zm-50.93,12.82-1.65,5.34H210l1.67-5.34Zm54.91,0,1.67,5.34H589.79a22,22,0,0,0,1.89-5.34ZM200.81,413h5.34l1.47-4.72h-5.34Zm64.38-4.72,1.47,4.72H569.94a22.12,22.12,0,0,0,13.71-4.72ZM146.74,28.23l-.29-.93-.29.93,0,.09-1.67,5.34-2.25,7.21-1.67,5.34-2.24,7.21-1.67,5.34L134.41,66l-1.67,5.34-2.24,7.21-1.67,5.34-2.25,7.21-1.67,5.34-2.25,7.21L121,109l-2.25,7.21-1.67,5.34L114.76,129l-1.67,5.34-2.31,7.48-1.67,5.34-2.33,7.47L105.11,160l-2.32,7.47-1.67,5.34-2.33,7.48-1.67,5.34-2.32,7.48-1.67,5.34-2.33,7.47-1.67,5.34-2.32,7.48-1.66,5.34-2.25,7.21-1.67,5.34L79,243.81l-1.64,5.34-2.25,7.21-1.67,5.34-2.25,7.21-1.67,5.34-2.25,7.21-1.66,5.34L63.34,294l-1.65,5.32v0L26.27,413h5.34L63.12,311.9l1.66-5.34,2.25-7.2L68.68,294l2.25-7.21,1.67-5.34,2.24-7.21,1.67-5.34,2.25-7.21,1.67-5.34,2.22-7.21,1.67-5.34,2.25-7.21,1.67-5.34,2.25-7.21,1.67-5.34,2.31-7.48,1.67-5.34,2.34-7.47,1.66-5.34,2.32-7.48,1.67-5.34,2.33-7.48,1.67-5.34,2.32-7.47,1.67-5.35,2.33-7.47,1.67-5.34,2.32-7.48L120.1,129l2.34-7.48,1.67-5.34,2.23-7.21,1.66-5.34,2.25-7.21,1.67-5.34,2.25-7.21,1.67-5.34,2.24-7.21L139.73,66,142,58.76l1.67-5.34,2.25-7.21,1.66-5.34,1.56-5,.69-2.2,1.67-5.34,0-.09Zm9.75,0,0,.09-1.66,5.34-2.25,7.21-.94,3-.73,2.36-2.25,7.21L147,58.76,144.72,66l-1.65,5.34-2.25,7.21-1.67,5.34-2.24,7.21-1.67,5.34L133,103.62,131.32,109l-2.25,7.21-1.64,5.34L125.09,129l-1.67,5.34-2.34,7.48-1.64,5.34-2.34,7.47L115.43,160l-2.31,7.47-1.67,5.34-2.34,7.48-1.67,5.34-2.31,7.48-1.67,5.34-2.34,7.47-1.67,5.34-2.31,7.48-1.67,5.34-2.25,7.21-1.67,5.34-2.24,7.21-1.67,5.34-2.25,7.21-1.65,5.34-2.24,7.21-1.67,5.34-2.25,7.21-1.67,5.34L73.66,294,72,299.36l-2.25,7.2L68.1,311.9l-2.25,7.21-1.67,5.35-2.24,7.21-.25.8L36.59,413h5.34l19.76-63.46h0l1.65-5.34L65.61,337l1.67-5.34,2.24-7.21,1.67-5.35,2.25-7.21,1.67-5.34,2.25-7.2L79,294l2.25-7.21,1.67-5.34,2.25-7.21,1.67-5.34,2.24-7.21,1.65-5.34L93,249.15l1.67-5.34,2.24-7.21,1.67-5.34,2.25-7.21,1.67-5.34,2.31-7.48,1.67-5.34,2.34-7.47,1.67-5.34,2.31-7.48,1.67-5.34,2.34-7.48,1.65-5.34,2.33-7.47,1.67-5.35,2.34-7.47,1.64-5.34,2.34-7.48,1.67-5.34,2.34-7.48,1.64-5.34,2.25-7.21,1.67-5.34,2.25-7.21,1.67-5.34,2.24-7.21,1.67-5.34,2.23-7.21L150.06,66l2.24-7.21L154,53.42l.31-1,1.94-6.21,1.67-5.34,2.25-7.21,1.67-5.34,0-.09Zm12.55,0,0,.09-1.67,5.34-2.25,7.21-1.67,5.34-2.25,7.21-1.67,5.34L157.89,64l-.62,2-1.67,5.34-2.23,7.21-1.67,5.34-2.24,7.21-1.67,5.34-2.25,7.21L143.87,109l-2.25,7.21L140,121.51,137.64,129,136,134.33l-2.34,7.48L132,147.15l-2.34,7.47L128,160l-2.31,7.47L124,172.78l-2.34,7.48L120,185.6l-2.31,7.48L116,198.42l-2.34,7.47L112,211.23l-2.31,7.48L108,224.05l-2.25,7.21-1.66,5.34-2.25,7.21-1.67,5.34-2.25,7.21-1.65,5.34-2.24,7.21-1.67,5.34-2.25,7.21-1.67,5.34L86.21,294l-1.64,5.35-2.25,7.2-1.67,5.34-2.25,7.21-1.67,5.35-2.24,7.21L72.82,337l-2.25,7.21-1.65,5.34L66.59,357l-1.67,5.34-2.34,7.48-.89,2.89L49.14,413h5.34l7.79-25,1.67-5.34,2.34-7.48,1.64-5.34,2.34-7.48L71.93,357l2.33-7.47,1.65-5.34L78.16,337l1.67-5.34,2.24-7.21,1.67-5.35L86,311.9l1.67-5.34,2.23-7.2L91.55,294l2.25-7.21,1.67-5.34,2.25-7.21,1.67-5.34,2.24-7.21,1.65-5.34,2.25-7.21,1.67-5.34,2.25-7.21,1.66-5.34,2.25-7.21,1.67-5.34,2.32-7.48,1.66-5.34,2.34-7.47,1.67-5.34,2.31-7.48,1.67-5.34,2.34-7.48,1.65-5.34,2.33-7.47,1.67-5.35,2.34-7.47,1.64-5.34,2.34-7.48L143,129l2.34-7.48,1.64-5.34,2.25-7.21,1.67-5.34,2.25-7.21,1.67-5.34L157,83.86l1.65-5.34,1.87-6,.38-1.25L162.61,66l2.24-7.21,1.67-5.34,2.25-7.21,1.67-5.34,2.25-7.21,1.67-5.34,0-.09Zm12.55,0,0,.09-1.67,5.34-2.25,7.21L176,46.21l-2.25,7.21-1.67,5.34L169.82,66l-1.65,5.34-2.25,7.21-1.67,5.34-.09.27L162,91.07l-1.67,5.34-2.25,7.21L156.42,109l-2.25,7.21-1.64,5.34L150.19,129l-1.67,5.34-2.34,7.48-1.64,5.34-2.34,7.47L140.53,160l-2.33,7.47-1.65,5.34-2.34,7.48-1.67,5.34-2.31,7.48-1.67,5.34-2.34,7.47-1.67,5.34-2.31,7.48-1.67,5.34-2.25,7.21-1.66,5.34-2.25,7.21-1.67,5.34-2.25,7.21-1.65,5.34-2.24,7.21-1.67,5.34-2.25,7.21L101,286.8,98.76,294l-1.66,5.35-2.23,7.2L93.2,311.9,91,319.11l-1.67,5.35L87,331.67,85.37,337l-2.25,7.21-1.65,5.34L79.14,357l-1.67,5.34-2.34,7.48-1.64,5.34-2.34,7.48L69.48,388l-2.31,7.48-1.67,5.34-2.34,7.47L61.69,413H67l1.47-4.72,2.34-7.47,1.67-5.34L74.82,388l1.67-5.34,2.34-7.48,1.64-5.34,2.34-7.48L84.48,357l2.33-7.47,1.65-5.34L90.71,337l1.67-5.34,2.25-7.21,1.66-5.35,2.25-7.21,1.67-5.34,2.23-7.2L104.1,294l2.25-7.21,1.67-5.34,2.25-7.21,1.67-5.34,2.25-7.21,1.64-5.34,2.25-7.21,1.67-5.34L122,236.6l1.66-5.34,2.25-7.21,1.67-5.34,2.32-7.48,1.66-5.34,2.34-7.47,1.67-5.34,2.31-7.48,1.67-5.34,2.34-7.48,1.65-5.34,2.33-7.47,1.67-5.35,2.34-7.47,1.64-5.34,2.34-7.48,1.67-5.34,2.34-7.48,1.64-5.34,2.25-7.21,1.67-5.34,2.25-7.21,1.15-3.71.52-1.63,2.24-7.21,1.67-5.34,2.25-7.21L175.16,66l2.24-7.21,1.67-5.34,2.25-7.21L183,40.87l2.25-7.21,1.67-5.34,0-.09Zm12.55,0,0,.09-1.67,5.34-2.25,7.21-1.67,5.34-2.25,7.21-1.67,5.34L182.37,66l-1.65,5.34-2.25,7.21-1.67,5.34-2.24,7.21-1.67,5.34-2.25,7.21-.2.65L169,109l-2.25,7.21-1.64,5.34L162.74,129l-1.67,5.34-2.34,7.48-1.64,5.34-2.34,7.47L153.08,160l-2.33,7.47-1.65,5.34-2.34,7.48-1.67,5.34-2.31,7.48-1.67,5.34-2.34,7.47-1.67,5.34-2.31,7.48-1.67,5.34-2.25,7.21-1.66,5.34L127,243.81l-1.67,5.34L123,256.36l-1.65,5.34-2.24,7.21-1.67,5.34-2.25,7.21-1.67,5.34L111.31,294l-1.66,5.35-2.23,7.2-1.67,5.34-2.25,7.21-1.67,5.35-2.24,7.21L97.92,337l-2.25,7.21L94,349.56,91.69,357,90,362.37l-2.34,7.48L86,375.19l-2.34,7.48L82,388l-2.31,7.48-1.67,5.34-2.34,7.47L74.24,413h5.34l1.47-4.72,2.34-7.47,1.67-5.34L87.37,388,89,382.67l2.34-7.48L93,369.85l2.34-7.48L97,357l2.33-7.47,1.65-5.34,2.25-7.21,1.67-5.34,2.25-7.21,1.66-5.35,2.25-7.21,1.67-5.34,2.23-7.2,1.66-5.35,2.25-7.21,1.67-5.34,2.25-7.21,1.67-5.34,2.25-7.21,1.64-5.34,2.25-7.21,1.67-5.34,2.25-7.21,1.66-5.34,2.25-7.21,1.67-5.34,2.32-7.48,1.66-5.34,2.34-7.47,1.65-5.34,2.33-7.48,1.67-5.34,2.34-7.48,1.65-5.34,2.33-7.47,1.67-5.35,2.34-7.47,1.64-5.34,2.34-7.48,1.67-5.34,2.31-7.48,1.67-5.34,1.05-3.34,1.2-3.87,1.67-5.34,2.25-7.21,1.67-5.34,2.24-7.21,1.67-5.34,2.25-7.21L187.71,66,190,58.76l1.67-5.34,2.25-7.21,1.67-5.34,2.25-7.21,1.67-5.34,0-.09Zm12.55,0,0,.09L205,33.66l-2.25,7.21-1.67,5.34-2.25,7.21-1.66,5.34L194.92,66l-1.65,5.34L191,78.52l-1.67,5.34-2.24,7.21-1.67,5.34-2.25,7.21L181.52,109l-2.25,7.21-1.64,5.34-.91,2.9L175.29,129l-1.67,5.34-2.33,7.48-1.65,5.34-2.34,7.47L165.63,160l-2.33,7.47-1.65,5.34-2.34,7.48-1.67,5.34-2.31,7.48-1.67,5.34-2.34,7.47-1.66,5.34-2.32,7.48-1.67,5.34-2.24,7.21-1.67,5.34-2.25,7.21-1.67,5.34-2.25,7.21L134,261.7l-2.25,7.21L130,274.25l-2.25,7.21-1.67,5.34L123.87,294l-1.67,5.35-2.23,7.2-1.67,5.34-2.25,7.21-1.66,5.35-2.25,7.21L110.47,337l-2.25,7.21-1.65,5.34L104.24,357l-1.67,5.34-2.34,7.48-1.64,5.34-2.34,7.48L94.58,388l-2.31,7.48-1.67,5.34-2.34,7.47L86.79,413h5.34l1.47-4.72,2.34-7.47,1.67-5.34L99.92,388l1.67-5.34,2.34-7.48,1.64-5.34,2.34-7.48,1.67-5.34,2.34-7.47,1.64-5.34,2.25-7.21,1.67-5.34,2.25-7.21,1.67-5.35,2.24-7.21,1.67-5.34,2.23-7.2,1.67-5.35,2.24-7.21,1.67-5.34,2.25-7.21,1.67-5.34,2.25-7.21,1.64-5.34,2.25-7.21,1.67-5.34,2.25-7.21,1.67-5.34,2.24-7.21,1.67-5.34,2.32-7.48,1.67-5.34,2.33-7.47,1.65-5.34L163,185.6l1.66-5.34,2.34-7.48,1.65-5.34L171,160l1.67-5.35,2.34-7.47,1.65-5.34,2.33-7.48.43-1.36,1.24-4,2.34-7.48,1.64-5.34,2.25-7.21,1.67-5.34,2.25-7.21,1.67-5.34,2.25-7.21,1.66-5.34,2.25-7.21L200.26,66l2.25-7.21,1.66-5.34,2.25-7.21,1.67-5.34,2.25-7.21L212,28.32l0-.09Zm12.55,0,0,.09-1.67,5.34-2.25,7.21-1.67,5.34-2.25,7.21-1.67,5.34L207.47,66l-1.65,5.34-2.25,7.21-1.67,5.34-2.24,7.21L198,96.41l-2.25,7.21L194.07,109l-2.25,7.21-1.64,5.34L187.84,129l-1.67,5.34-2.34,7.48-.84,2.73-.8,2.61-2.34,7.47L178.18,160l-2.33,7.47-1.65,5.34-2.34,7.48-1.67,5.34-2.33,7.48-1.65,5.34-2.34,7.47-1.66,5.34-2.32,7.48-1.67,5.34L156,231.26l-1.67,5.34-2.25,7.21-1.67,5.34-2.25,7.21-1.64,5.34-2.25,7.21-1.67,5.34-2.25,7.21-1.67,5.34L136.41,294l-1.66,5.35-2.23,7.2-1.67,5.34-2.25,7.21-1.66,5.35-2.25,7.21L123,337l-2.25,7.21-1.65,5.34L116.79,357l-1.67,5.34-2.34,7.48-1.64,5.34-2.34,7.48L107.13,388l-2.31,7.48-1.67,5.34-2.34,7.47L99.34,413h5.34l1.47-4.72,2.34-7.47,1.67-5.34,2.31-7.48,1.67-5.34,2.34-7.48,1.64-5.34,2.34-7.48,1.67-5.34,2.34-7.47,1.64-5.34,2.25-7.21,1.67-5.34,2.25-7.21,1.67-5.35,2.24-7.21,1.65-5.34,2.25-7.2,1.67-5.35L144,286.8l1.67-5.34,2.25-7.21,1.67-5.34,2.25-7.21,1.64-5.34,2.25-7.21,1.67-5.34,2.25-7.21,1.67-5.34,2.24-7.21,1.67-5.34,2.32-7.48,1.67-5.34,2.33-7.47,1.65-5.34,2.33-7.48,1.67-5.34,2.34-7.48,1.65-5.34,2.33-7.47,1.67-5.35.47-1.51,1.87-6,1.65-5.34,2.33-7.48,1.67-5.34,2.34-7.48,1.64-5.34,2.25-7.21,1.67-5.34,2.25-7.21L205,91.07l2.24-7.21,1.67-5.34,2.25-7.21L212.81,66l2.25-7.21,1.66-5.34L219,46.21l1.67-5.34,2.25-7.21,1.67-5.34,0-.09Zm12.55,0,0,.09-1.67,5.34-2.25,7.21-1.67,5.34-2.25,7.21-1.66,5.34L220,66l-1.65,5.34-2.25,7.21-1.66,5.34-2.25,7.21-1.67,5.34-2.25,7.21L206.62,109l-2.25,7.21-1.64,5.34L200.39,129l-1.67,5.34-2.33,7.48-1.65,5.34-2.34,7.47L190.73,160l-1.46,4.71-.87,2.76-1.65,5.34-2.34,7.48-1.66,5.34-2.34,7.48-1.65,5.34-2.33,7.47-1.67,5.34-2.32,7.48-1.67,5.34-2.24,7.21-1.67,5.34-2.25,7.21-1.67,5.34-2.25,7.21-1.64,5.34-2.25,7.21-1.67,5.34-2.25,7.21-1.67,5.34L149,294l-1.67,5.35-2.25,7.2-1.65,5.34-2.24,7.21-1.67,5.35-2.25,7.21L135.57,337l-2.25,7.21-1.64,5.34L129.34,357l-1.67,5.34-2.34,7.48-1.64,5.34-2.34,7.48L119.68,388l-2.31,7.48-1.67,5.34-2.34,7.47L111.89,413h5.34l1.47-4.72,2.34-7.47,1.67-5.34L125,388l1.67-5.34,2.34-7.48,1.64-5.34,2.34-7.48,1.67-5.34,2.34-7.47,1.64-5.34,2.25-7.21,1.67-5.34,2.25-7.21,1.67-5.35,2.24-7.21,1.65-5.34,2.25-7.2,1.67-5.35,2.24-7.21,1.67-5.34,2.25-7.21,1.67-5.34,2.25-7.21,1.64-5.34,2.25-7.21,1.67-5.34,2.25-7.21,1.67-5.34,2.24-7.21,1.65-5.34,2.34-7.48,1.67-5.34,2.33-7.47,1.65-5.34,2.34-7.48,1.67-5.34,2.18-7,.15-.47,1.65-5.34,2.33-7.47,1.67-5.35,2.34-7.47,1.65-5.34,2.33-7.48,1.67-5.34,2.34-7.48,1.65-5.34L212,109l1.67-5.34,2.25-7.21,1.67-5.34,2.25-7.21,1.66-5.34,2.25-7.21L225.36,66l2.25-7.21,1.67-5.34,2.24-7.21,1.67-5.34,2.25-7.21,1.67-5.34,0-.09Zm12.55,0,0,.09-1.67,5.34-2.25,7.21-1.67,5.34-2.25,7.21-1.66,5.34L232.57,66l-1.65,5.34-2.25,7.21L227,83.86l-2.25,7.21-1.67,5.34-2.25,7.21L219.17,109l-2.24,7.21-1.65,5.34L212.94,129l-1.67,5.34-2.33,7.48-1.65,5.34L205,154.62,203.28,160,201,167.44l-1.65,5.34L197,180.26l-1.42,4.56-.24.78L193,193.08l-1.65,5.34L189,205.89l-1.67,5.34L185,218.71l-1.67,5.34-2.24,7.21-1.67,5.34-2.25,7.21-1.67,5.34-2.25,7.21-1.64,5.34-2.25,7.21-1.67,5.34-2.25,7.21-1.67,5.34L161.52,294l-1.67,5.35-2.25,7.2L156,311.9l-2.24,7.21L152,324.46l-2.25,7.21L148.12,337l-2.25,7.21-1.64,5.34L141.89,357l-1.67,5.34-2.34,7.48-1.64,5.34-2.34,7.48L132.23,388l-2.31,7.48-1.67,5.34-2.34,7.47L124.44,413h5.34l1.47-4.72,2.34-7.47,1.67-5.34,2.31-7.48,1.67-5.34,2.34-7.48,1.64-5.34,2.34-7.48,1.67-5.34,2.34-7.47,1.64-5.34,2.25-7.21,1.67-5.34,2.25-7.21,1.67-5.35,2.24-7.21,1.65-5.34,2.25-7.2,1.67-5.35,2.24-7.21,1.67-5.34,2.25-7.21,1.67-5.34,2.25-7.21,1.64-5.34,2.25-7.21,1.67-5.34,2.25-7.21,1.67-5.34,2.24-7.21,1.65-5.34,2.34-7.48,1.67-5.34,2.33-7.47,1.56-5,.09-.31,2.34-7.48,1.67-5.34,2.33-7.48,1.65-5.34,2.33-7.47,1.67-5.35,2.34-7.47,1.65-5.34,2.33-7.48,1.67-5.34,2.34-7.48,1.65-5.34,2.24-7.21,1.67-5.34,2.25-7.21,1.67-5.34,2.25-7.21L234,78.52l2.25-7.21L237.91,66l2.25-7.21,1.67-5.34,2.24-7.21,1.67-5.34L248,33.66l1.67-5.34,0-.09Zm12.55,0,0,.09-1.67,5.34L253,40.87l-1.67,5.34L249,53.42l-1.66,5.34L245.12,66l-1.65,5.34-2.25,7.21-1.66,5.34-2.25,7.21-1.67,5.34-2.25,7.21L231.72,109l-2.24,7.21-1.65,5.34L225.49,129l-1.67,5.34-2.33,7.48-1.65,5.34-2.34,7.47L215.83,160l-2.33,7.47-1.65,5.34-2.34,7.48-1.66,5.34-2.34,7.48-1.65,5.34L201.81,205l-.28.93-1.67,5.34-2.34,7.48-1.65,5.34-2.24,7.21L192,236.6l-2.25,7.21L188,249.15l-2.25,7.21-1.64,5.34-2.25,7.21-1.67,5.34L178,281.46l-1.67,5.34L174.07,294l-1.67,5.35-2.25,7.2-1.65,5.34-2.24,7.21-1.67,5.35-2.25,7.21L160.67,337l-2.25,7.21-1.64,5.34L154.44,357l-1.67,5.34-2.34,7.48-1.64,5.34-2.34,7.48L144.78,388l-2.31,7.48-1.67,5.34-2.34,7.47L137,413h5.34l1.47-4.72,2.34-7.47,1.65-5.34,2.33-7.48,1.67-5.34,2.34-7.48,1.64-5.34,2.34-7.48,1.67-5.34,2.34-7.47,1.64-5.34L166,337l1.67-5.34,2.25-7.21,1.67-5.35,2.24-7.21,1.65-5.34,2.25-7.2,1.67-5.35,2.24-7.21,1.67-5.34,2.25-7.21,1.67-5.34,2.25-7.21,1.64-5.34,2.25-7.21,1.67-5.34,2.25-7.21,1.67-5.34,2.24-7.21,1.65-5.34,1.63-5.18.71-2.3,1.67-5.34,2.33-7.47,1.65-5.34,2.34-7.48,1.67-5.34,2.33-7.48,1.65-5.34,2.33-7.47,1.67-5.35,2.34-7.47,1.65-5.34,2.33-7.48,1.67-5.34,2.34-7.48,1.65-5.34,2.24-7.21,1.67-5.34L241,96.41l1.67-5.34,2.25-7.21,1.66-5.34,2.25-7.21L250.46,66l2.25-7.21,1.67-5.34,2.24-7.21,1.67-5.34,2.25-7.21,1.67-5.34,0-.09Zm12.55,0,0,.09-1.67,5.34-2.25,7.21-1.67,5.34-2.24,7.21-1.67,5.34L257.67,66,256,71.31l-2.24,7.21-1.67,5.34-2.25,7.21-1.67,5.34-2.25,7.21L244.27,109,242,116.17l-1.65,5.34L238,129l-1.67,5.34L234,141.81l-1.65,5.34-2.34,7.47L228.38,160l-2.33,7.47-1.65,5.34-2.33,7.48-1.67,5.34-2.34,7.48-1.65,5.34-2.33,7.47-1.67,5.34-2.34,7.48-1.65,5.34-.33,1-1.91,6.16-1.67,5.34-2.25,7.21-1.67,5.34-2.25,7.21-1.64,5.34-2.25,7.21-1.67,5.34-2.25,7.21-1.67,5.34L186.62,294,185,299.36l-2.25,7.2-1.65,5.34-2.24,7.21-1.67,5.35-2.25,7.21L173.22,337,171,344.22l-1.64,5.34L167,357l-1.67,5.34L163,369.85l-1.64,5.34L159,382.67,157.33,388,155,395.49l-1.65,5.34L151,408.3,149.54,413h5.35l1.46-4.72,2.34-7.47,1.65-5.34,2.33-7.48,1.67-5.34,2.34-7.48,1.65-5.34,2.33-7.48,1.67-5.34,2.34-7.47,1.64-5.34,2.25-7.21,1.67-5.34,2.25-7.21,1.67-5.35,2.24-7.21,1.65-5.34,2.25-7.2L192,294l2.24-7.21,1.67-5.34,2.25-7.21,1.67-5.34L202,261.7l1.66-5.34,2.25-7.21,1.67-5.34,2.25-7.21.91-2.93.76-2.41,2.24-7.21,1.65-5.34,2.34-7.48,1.67-5.34,2.33-7.47,1.65-5.34,2.34-7.48,1.67-5.34,2.33-7.48,1.65-5.34,2.34-7.47,1.66-5.35,2.34-7.47,1.65-5.34,2.33-7.48,1.67-5.34,2.34-7.48,1.65-5.34,2.24-7.21,1.67-5.34,2.25-7.21,1.67-5.34,2.25-7.21,1.67-5.34,2.24-7.21L263,66l2.25-7.21,1.67-5.34,2.24-7.21,1.67-5.34,2.25-7.21,1.67-5.34,0-.09Zm12.82,0,0,.09-1.67,5.34-2.25,7.21-1.67,5.34-2.25,7.21-1.67,5.34L270.51,66l-1.67,5.34-2.25,7.21-1.67,5.34-2.24,7.21L261,96.41l-2.25,7.21L257.09,109l-2.22,7.21-1.67,5.34L250.86,129l-1.67,5.34-2.31,7.48-1.67,5.34-2.34,7.47L241.2,160l-2.31,7.47-1.67,5.34-2.34,7.48-1.67,5.34-2.31,7.48-1.67,5.34-2.34,7.47-1.67,5.34-2.31,7.48-1.67,5.34L219,231.26l-1.66,5.34-2.25,7.21-.58,1.87-1.09,3.47-2.25,7.21-1.65,5.34-2.24,7.21-1.67,5.34-2.25,7.21-1.67,5.34L199.43,294l-1.66,5.35-2.23,7.2-1.67,5.34-2.25,7.21L190,324.46l-2.24,7.21L186,337l-2.25,7.21-1.65,5.34L179.81,357l-1.67,5.34-2.34,7.48-1.64,5.34-2.34,7.48L170.15,388l-2.31,7.48-1.67,5.34-2.34,7.47L162.36,413h5.34l1.47-4.72,2.34-7.47,1.67-5.34,2.31-7.48,1.67-5.34,2.34-7.48,1.64-5.34,2.34-7.48,1.67-5.34,2.33-7.47,1.65-5.34,2.25-7.21,1.67-5.34,2.24-7.21,1.67-5.35,2.25-7.21,1.67-5.34,2.23-7.2,1.66-5.35L207,286.8l1.67-5.34,2.25-7.21,1.67-5.34,2.24-7.21,1.65-5.34.67-2.11,1.58-5.1,1.67-5.34,2.25-7.21,1.66-5.34,2.25-7.21,1.67-5.34,2.32-7.48,1.66-5.34,2.34-7.47,1.67-5.34,2.31-7.48,1.67-5.34,2.34-7.48,1.67-5.34,2.31-7.47,1.67-5.35,2.34-7.47,1.67-5.34,2.31-7.48L256.2,129l2.34-7.48,1.67-5.34,2.22-7.21,1.67-5.34,2.25-7.21L268,91.07l2.24-7.21,1.67-5.34,2.25-7.21L275.85,66l2.22-7.21,1.67-5.34L282,46.21l1.67-5.34,2.25-7.21,1.67-5.34,0-.09Zm12.82,0,0,.09-1.67,5.34-2.24,7.21-1.67,5.34-2.25,7.21-1.67,5.34L283.33,66l-1.67,5.34-2.25,7.21-1.67,5.34-2.25,7.21-1.67,5.34-2.24,7.21L269.91,109l-2.23,7.21L266,121.51,263.68,129,262,134.33l-2.32,7.48L258,147.15l-2.34,7.47L254,160l-2.31,7.47L250,172.78l-2.34,7.48L246,185.6l-2.31,7.48-1.67,5.34-2.34,7.47L238,211.23l-2.31,7.48-1.67,5.34-2.25,7.21-1.67,5.34-2.24,7.21-1.67,5.34L224,256.36l-1.65,5.34-1.42,4.54-.83,2.67-1.66,5.34-2.25,7.21-1.67,5.34L212.25,294l-1.67,5.35-2.24,7.2-1.65,5.34-2.25,7.21-1.67,5.35-2.25,7.21L198.86,337l-2.25,7.21L195,349.56,192.63,357,191,362.37l-2.34,7.48L187,375.19l-2.33,7.48L183,388l-2.32,7.48L179,400.83l-2.33,7.47L175.18,413h5.34L182,408.3l2.34-7.47,1.64-5.34,2.34-7.48,1.67-5.34,2.33-7.48,1.65-5.34,2.34-7.48L198,357l2.33-7.47,1.65-5.34L204.2,337l1.67-5.34,2.24-7.21,1.67-5.35L212,311.9l1.65-5.34,2.24-7.2,1.67-5.35,2.25-7.21,1.67-5.34,2.07-6.65.18-.56,1.67-5.34,2.24-7.21,1.65-5.34,2.25-7.21,1.67-5.34,2.24-7.21,1.67-5.34,2.25-7.21,1.67-5.34,2.31-7.48,1.67-5.34,2.34-7.47,1.67-5.34,2.31-7.48,1.67-5.34,2.34-7.48,1.67-5.34,2.31-7.47,1.67-5.35,2.34-7.47,1.67-5.34,2.31-7.48L269,129l2.33-7.48,1.65-5.34,2.25-7.21,1.67-5.34,2.25-7.21,1.66-5.34,2.25-7.21,1.67-5.34L287,71.31,288.67,66l2.22-7.21,1.67-5.34,2.25-7.21,1.67-5.34,2.25-7.21,1.66-5.34,0-.09Zm12.81,0,0,.09-1.67,5.34L304,40.87l-1.66,5.34L300,53.42l-1.67,5.34L296.12,66l-1.65,5.34-2.24,7.21-1.67,5.34-2.25,7.21-1.67,5.34-2.25,7.21L282.73,109l-2.25,7.21-1.65,5.34L276.49,129l-1.66,5.34-2.32,7.48-1.67,5.34-2.33,7.47L266.84,160l-2.32,7.47-1.67,5.34-2.33,7.48-1.67,5.34-2.32,7.48-1.66,5.34-2.34,7.47-1.67,5.34-2.31,7.48-1.67,5.34-2.25,7.21L243,236.6l-2.25,7.21L239,249.15l-2.24,7.21-1.65,5.34-2.25,7.21-1.67,5.34L229,281.46l-1.67,5.34L225.07,294l-1.67,5.35-2.25,7.2-1.64,5.34-2.25,7.21-1.67,5.35-2.25,7.21L211.67,337l-2.24,7.21-1.67,5.34L205.44,357l-1.67,5.34-2.33,7.48-1.65,5.34-2.34,7.48L195.78,388l-2.33,7.48-1.65,5.34-2.34,7.47L188,413h5.34l1.47-4.72,2.33-7.47,1.65-5.34,2.34-7.48,1.66-5.34,2.34-7.48,1.65-5.34,2.33-7.48,1.67-5.34,2.32-7.47,1.67-5.34L217,337l1.67-5.34,2.25-7.21,1.67-5.35,2.25-7.21,1.64-5.34,2.25-7.2,1.25-4,.42-1.36,2.25-7.21,1.67-5.34,2.24-7.21,1.67-5.34,2.23-7.21,1.67-5.34,2.24-7.21,1.67-5.34,2.25-7.21,1.67-5.34,2.25-7.21,1.67-5.34,2.31-7.48,1.67-5.34,2.34-7.47,1.66-5.34,2.32-7.48,1.67-5.34,2.33-7.48,1.67-5.34,2.32-7.47,1.67-5.35,2.33-7.47,1.65-5.34,2.34-7.48,1.67-5.34,2.33-7.48,1.65-5.34,2.25-7.21,1.66-5.34L292,96.41l1.67-5.34,2.25-7.21,1.67-5.34,2.25-7.21L301.46,66l2.25-7.21,1.67-5.34,2.25-7.21,1.66-5.34,2.25-7.21,1.67-5.34,0-.09Zm12.82,0,0,.09L319,33.66l-2.25,7.21-1.67,5.34-2.24,7.21-1.67,5.34L308.94,66l-1.65,5.34-2.24,7.21-1.67,5.34-2.25,7.21-1.67,5.34-2.25,7.21L295.54,109l-2.24,7.21-1.65,5.34L289.31,129l-1.67,5.34-2.33,7.48-1.65,5.34-2.34,7.47L279.66,160l-2.34,7.47-1.65,5.34-2.33,7.48-1.67,5.34-2.34,7.48-1.65,5.34-2.33,7.47-1.67,5.34-2.32,7.48-1.67,5.34-2.24,7.21-1.67,5.34-2.25,7.21-1.67,5.34-2.25,7.21L248,261.7l-2.25,7.21-1.65,5.34-2.25,7.21-1.67,5.34L237.89,294l-1.67,5.35-2.25,7.2-.24.81-1.43,4.53-2.22,7.21-1.67,5.35-2.25,7.21L224.49,337l-2.25,7.21-1.67,5.34L218.26,357l-1.67,5.34-2.33,7.48-1.65,5.34-2.34,7.48L208.6,388l-2.33,7.48-1.65,5.34-2.34,7.47L200.81,413h5.35l1.46-4.72,2.34-7.47,1.67-5.34,2.31-7.48,1.67-5.34,2.34-7.48,1.65-5.34,2.33-7.48L223.6,357l2.34-7.47,1.64-5.34,2.25-7.21,1.67-5.34,2.25-7.21,1.67-5.35,1-3.15,1.26-4.06,1.65-5.34,2.25-7.2,1.67-5.35,2.25-7.21,1.66-5.34,2.25-7.21,1.67-5.34,2.25-7.21,1.64-5.34,2.25-7.21,1.67-5.34,2.25-7.21,1.67-5.34,2.25-7.21,1.66-5.34,2.32-7.48,1.67-5.34,2.33-7.47,1.67-5.34L277,185.6l1.67-5.34,2.33-7.48,1.67-5.34L285,160l1.66-5.35,2.34-7.47,1.67-5.34,2.31-7.48,1.67-5.34,2.34-7.48,1.67-5.34L300.9,109l1.65-5.34,2.25-7.21,1.67-5.34,2.25-7.21,1.67-5.34,2.24-7.21L314.3,66l2.23-7.21,1.67-5.34,2.24-7.21,1.67-5.34,2.25-7.21L326,28.32l0-.09Z"/></clipPath><linearGradient id="linear-gradient" y1="232.62" x2="634.98" y2="232.62" gradientUnits="userSpaceOnUse"><stop offset="0" stop-color="#4afc68"/><stop offset="1" stop-color="#00ffe4"/></linearGradient></defs><title>AI.nxt White</title><g id="Layer_2" data-name="Layer 2"><g id="Layer_1-2" data-name="Layer 1"><g class="cls-2"><rect class="cls-3" width="634.98" height="465.24"/></g><path class="cls-4" d="M720.77,413.16H659.93a3,3,0,0,1-3-3V349.31a3,3,0,0,1,3-3h60.84a3,3,0,0,1,3,3v60.85a3,3,0,0,1-3,3"/><path class="cls-4" d="M784.9,208.36h61v27.95h.85a51.52,51.52,0,0,1,8.47-11.86,61.53,61.53,0,0,1,13.12-10.58,74.8,74.8,0,0,1,17.36-7.62,72.26,72.26,0,0,1,21.17-3q24.13,0,39,7.41a56.36,56.36,0,0,1,23.07,20.54q8.26,13.13,11.22,30.9a235.49,235.49,0,0,1,3,38.53V414.13H919.55V313.37q0-8.89-.64-18.42a57.89,57.89,0,0,0-3.81-17.57,30.36,30.36,0,0,0-9.74-13.13q-6.57-5.08-18.84-5.08t-19.9,4.45A30.31,30.31,0,0,0,855,275.47a48.17,48.17,0,0,0-5.29,16.73,143.52,143.52,0,0,0-1.28,19.47V414.13H784.9Z"/><path class="cls-4" d="M1083.4,304.05l-68.59-95.69h74.94l36.41,55.89,35.14-55.89H1232l-66.9,95.69,79.18,110.08h-74.94l-44.88-68.59-48.27,68.59h-74.09Z"/><path class="cls-4" d="M1403.49,259.17H1347.6v68.59a130.21,130.21,0,0,0,.84,15.46,31.14,31.14,0,0,0,3.82,12.06,19.21,19.21,0,0,0,9.1,7.84q6.14,2.75,16.3,2.75a109,109,0,0,0,13.34-1.06q8.25-1.05,12.49-4.87v52.92a95.85,95.85,0,0,1-22,5.09,204.77,204.77,0,0,1-22.44,1.27,122.46,122.46,0,0,1-29.64-3.39,67.61,67.61,0,0,1-23.71-10.8,50.55,50.55,0,0,1-15.88-19.26q-5.71-11.85-5.71-28.79V259.17h-40.65V208.36h40.65v-61h63.51v61h55.89Z"/></g></g></svg>