<svg xmlns="http://www.w3.org/2000/svg" viewBox="0 0 355.32 126.72"><defs><style>.cls-1{fill:#f4ab35;}.cls-2{fill:gray;}.cls-3,.cls-5{fill:#262626;}.cls-4{fill:#363636;}.cls-5{fill-rule:evenodd;}</style></defs><title>FutureSkills</title><g id="Layer_2" data-name="Layer 2"><g id="Layer_1-2" data-name="Layer 1"><polygon class="cls-1" points="341.37 104.8 5.45 104.8 5.45 103.72 341.37 103.72 341.37 104.8 341.37 104.8"/><path class="cls-2" d="M182.49,68.74c0-8-3.61-12.41-9.89-12.41-5.64,0-10.68,4.53-11.51,12.41ZM154.44,72c0-13.06,8.81-21.11,18-21.11,10.24,0,16,7.35,16,18.83a22.15,22.15,0,0,1-.31,3.86h-27c.48,8.5,5.68,14,13.33,14a17.55,17.55,0,0,0,10-3.21l2.43,4.45A23.5,23.5,0,0,1,173.65,93c-10.69,0-19.21-7.82-19.21-21ZM132.89,51.91h5.61l.57,7.31h.23c2.79-5.09,6.89-8.3,11.41-8.3a9.3,9.3,0,0,1,4.28.83l-1.27,6a11.3,11.3,0,0,0-3.89-.66c-3.39,0-7.44,2.45-10.15,9.23V92h-6.79V51.91ZM90.76,77.33V51.91h6.79V76.46c0,7.47,2.26,10.67,7.57,10.67,4.1,0,6.94-2,10.74-6.76V51.91h6.79V92H117l-.57-6.29h-.23C112.52,90.13,108.52,93,103,93c-8.45,0-12.25-5.46-12.25-15.7Zm-22.87,2.3V57.44h-6V52.3l6.27-.39L69,40.66h5.67V51.91H85.55v5.53H74.68V79.75c0,4.9,1.58,7.75,6.2,7.75a13.34,13.34,0,0,0,4.57-1.08l1.32,5.12A24,24,0,0,1,79.32,93c-8.54,0-11.43-5.42-11.43-13.4Zm-43.33-2.3V51.91h6.8V76.46c0,7.47,2.26,10.67,7.56,10.67,4.11,0,6.95-2,10.75-6.76V51.91h6.79V92H50.85l-.58-6.29h-.22C46.33,90.13,42.32,93,36.82,93c-8.46,0-12.26-5.46-12.26-15.7ZM0,52.3l5.45-.37V45.57c0-8.15,3.71-13.33,11.75-13.33a17.8,17.8,0,0,1,6.66,1.38L22.43,38.8a11.08,11.08,0,0,0-4.54-1c-3.79,0-5.65,2.65-5.65,7.83v6.31h8.5v5.53h-8.5V92H5.45V57.44H0V52.3Z"/><path class="cls-3" d="M311.91,87.46,315.26,83c3.48,2.8,7,4.75,11.84,4.75,5.27,0,7.89-2.81,7.89-6.23,0-4.13-4.74-6-9.18-7.61-5.62-2.05-12-4.82-12-11.59,0-6.42,5.15-11.39,13.84-11.39a20.36,20.36,0,0,1,12.48,4.51l-3.25,4.35c-2.76-2-5.6-3.57-9.15-3.57-5.05,0-7.39,2.69-7.39,5.75,0,3.82,4.37,5.27,8.91,7,5.79,2.18,12.23,4.53,12.23,12.17,0,6.51-5.16,11.93-14.64,11.93a24.08,24.08,0,0,1-15-5.57ZM298.61,84V33.23h6.79V84.47c0,2.08.9,2.9,1.89,2.9a6.09,6.09,0,0,0,1.49-.16l.92,5.18a10.86,10.86,0,0,1-3.91.64c-5.09,0-7.18-3.25-7.18-9Zm-17.75,0V33.23h6.79V84.47c0,2.08.91,2.9,1.89,2.9a6,6,0,0,0,1.49-.16l.92,5.18A10.78,10.78,0,0,1,288,93c-5.08,0-7.18-3.25-7.18-9Zm-17-32.07h6.79V92h-6.79V51.91Zm-1.24-12.63a4.7,4.7,0,0,1,9.38,0,4.7,4.7,0,0,1-9.38,0ZM226.3,33.23H233V73.06h.22l17.13-21.15h7.53L244.41,68l15.21,24h-7.43L240.5,72.75,233,81.51V92H226.3V33.23ZM190.56,87.46,193.91,83c3.48,2.8,7,4.75,11.84,4.75,5.27,0,7.89-2.81,7.89-6.23,0-4.13-4.74-6-9.18-7.61-5.62-2.05-12-4.82-12-11.59,0-6.42,5.15-11.39,13.84-11.39a20.36,20.36,0,0,1,12.48,4.51l-3.25,4.35c-2.76-2-5.6-3.57-9.15-3.57-5,0-7.39,2.69-7.39,5.75,0,3.82,4.37,5.27,8.91,7,5.79,2.18,12.24,4.53,12.24,12.17C220.17,87.61,215,93,205.53,93a24.11,24.11,0,0,1-15-5.57Z"/><path class="cls-4" d="M340.05,121.37c0-1.77-.79-2.74-2.18-2.74a2.71,2.71,0,0,0-2.53,2.74Zm-6.17.72c0-2.87,1.94-4.65,4-4.65,2.25,0,3.53,1.62,3.53,4.15a4.09,4.09,0,0,1-.08.85h-5.95a2.94,2.94,0,0,0,2.94,3.08,3.86,3.86,0,0,0,2.2-.7l.53,1a5.14,5.14,0,0,1-2.91.92c-2.36,0-4.23-1.73-4.23-4.63Zm-9.4-4.43H326l1.67,5,.82,2.61h.07c.26-.85.55-1.75.82-2.61l1.66-5h1.47l-3.12,8.84h-1.74l-3.19-8.84Zm-3.57,0h1.5v8.84h-1.5v-8.84Zm-.27-2.78a1,1,0,0,1,2.06,0,1,1,0,0,1-2.06,0Zm-6,8.89v-4.89h-1.31v-1.13l1.38-.09.18-2.48h1.25v2.48h2.39v1.22h-2.39v4.91c0,1.08.35,1.71,1.37,1.71a2.93,2.93,0,0,0,1-.24l.29,1.13a5.32,5.32,0,0,1-1.64.33c-1.88,0-2.52-1.2-2.52-3Zm-4.66.57v-2.45c-3,.35-4,1.08-4,2.21s.68,1.41,1.55,1.41a3.6,3.6,0,0,0,2.41-1.17Zm-5.42-.14c0-1.92,1.66-2.88,5.42-3.29,0-1.14-.38-2.24-1.82-2.24a4.94,4.94,0,0,0-2.64,1l-.58-1a6.5,6.5,0,0,1,3.47-1.16c2.15,0,3.07,1.44,3.07,3.64v5.42h-1.24l-.12-1.06h-.05a4.71,4.71,0,0,1-2.93,1.28,2.4,2.4,0,0,1-2.58-2.52Zm-4.3-6.54h1.49v8.84h-1.49v-8.84Zm-.27-2.78a1,1,0,0,1,2.06,0,1,1,0,0,1-2.06,0Zm-6,8.89v-4.89h-1.31v-1.13l1.38-.09.18-2.48h1.25v2.48h2.39v1.22h-2.39v4.91c0,1.08.34,1.71,1.36,1.71a2.93,2.93,0,0,0,1-.24l.29,1.13a5.32,5.32,0,0,1-1.64.33c-1.88,0-2.52-1.2-2.52-3Zm-5.1-6.11h1.49v8.84h-1.49v-8.84Zm-.28-2.78a1,1,0,1,1,1,1,1,1,0,0,1-1-1Zm-10,2.78h1.23l.13,1.28H280a4.21,4.21,0,0,1,3-1.5c1.86,0,2.7,1.21,2.7,3.46v5.6h-1.5v-5.41c0-1.64-.49-2.35-1.66-2.35a3.34,3.34,0,0,0-2.42,1.36v6.4h-1.49v-8.84Zm-22.58-3.09h1.82l2.29,6.37c.29.82.56,1.66.85,2.49h.07c.29-.83.54-1.67.83-2.49l2.26-6.37H266V126.5h-1.41v-6.57c0-1,.12-2.47.2-3.53h-.08l-.94,2.72-2.25,6.17h-1l-2.26-6.17-.95-2.72h-.07c.07,1.06.19,2.49.19,3.53v6.57h-1.37V114.57Zm-4.5,5.92c0-3-1.41-4.81-3.54-4.81s-3.53,1.84-3.53,4.81,1.4,4.89,3.53,4.89,3.54-1.92,3.54-4.89Zm-8.63,0c0-3.82,2.1-6.14,5.09-6.14s5.1,2.33,5.1,6.14-2.1,6.23-5.1,6.23-5.09-2.41-5.09-6.23Zm-10.22.05c0-3.84,2.27-6.19,5.29-6.19a4.41,4.41,0,0,1,3.28,1.47l-.83,1a3.24,3.24,0,0,0-2.42-1.13c-2.26,0-3.75,1.85-3.75,4.82s1.43,4.88,3.69,4.88a3.58,3.58,0,0,0,2.77-1.34l.83.95a4.6,4.6,0,0,1-3.66,1.73c-3,0-5.2-2.3-5.2-6.18ZM222.46,125l.91-1a4.67,4.67,0,0,0,3.29,1.48c1.56,0,2.49-.78,2.49-1.94s-.86-1.6-2-2.1l-1.71-.75a3.36,3.36,0,0,1-2.42-3.07c0-1.83,1.59-3.17,3.76-3.17a4.91,4.91,0,0,1,3.51,1.48l-.8,1a3.84,3.84,0,0,0-2.71-1.12c-1.34,0-2.23.68-2.23,1.75s1,1.58,2,2l1.7.74c1.38.59,2.46,1.41,2.46,3.19s-1.56,3.39-4.07,3.39a5.74,5.74,0,0,1-4.17-1.77Zm-9.81,0,.91-1a4.65,4.65,0,0,0,3.29,1.48c1.56,0,2.49-.78,2.49-1.94s-.86-1.6-2-2.1l-1.71-.75a3.36,3.36,0,0,1-2.42-3.07c0-1.83,1.59-3.17,3.76-3.17a4.91,4.91,0,0,1,3.51,1.48l-.8,1a3.82,3.82,0,0,0-2.71-1.12c-1.34,0-2.23.68-2.23,1.75s1,1.58,2,2l1.7.74c1.38.59,2.46,1.41,2.46,3.19s-1.56,3.39-4.07,3.39a5.74,5.74,0,0,1-4.17-1.77Zm-4.3-3.3-.57-1.82c-.43-1.33-.81-2.64-1.19-4h-.08c-.37,1.39-.75,2.69-1.18,4l-.57,1.82Zm-2.63-7.08h1.71l4,11.93h-1.61l-1.13-3.64h-4.35l-1.15,3.64h-1.55l4-11.93Zm-14.58,0h1.57l4.32,7.5,1.29,2.47h.07c-.08-1.2-.19-2.55-.19-3.8v-6.17h1.44V126.5h-1.57L193.75,119l-1.29-2.46h-.07c.08,1.2.2,2.48.2,3.72v6.25h-1.45V114.57Z"/><path class="cls-4" d="M273.35,114.88a1,1,0,0,1,2.06,0,1,1,0,0,1-2.06,0Z"/><polygon class="cls-4" points="273.62 117.66 275.12 117.66 275.12 126.5 273.62 126.5 273.62 117.66 273.62 117.66"/><path class="cls-4" d="M178.54,121.87l.58-1.82c.42-1.33.81-2.63,1.17-4h.08c.38,1.38.76,2.69,1.19,4l.57,1.82Zm2.65-7.08h-1.71l-4,11.93H177l1.14-3.64h4.35l1.14,3.64h1.61l-4-11.93Z"/><path class="cls-1" d="M27.22,35.59l0,.16,0,.14a.57.57,0,0,1,0,.14.69.69,0,0,1-.05.13.54.54,0,0,1-.05.11.25.25,0,0,1,0,.07s0,0,0,0l0,.08-.07.1-.08.1-.11.12-.15.15L15.86,47.57l-.18.16V42.28l6.87-6.87-6.87-6.87V23.09l.18.16L26.51,33.9l.15.15.11.12.08.1a.61.61,0,0,0,.07.1s0,.05,0,.08l0,0a.2.2,0,0,1,0,.08l.05.1a.69.69,0,0,1,.05.13.74.74,0,0,1,0,.14l0,.14,0,.16a2.16,2.16,0,0,1,0,.36Z"/><path class="cls-1" d="M42.35,23a2070241220176.64,2070241220176.64,0,0,0,0,.24.49.49,0,0,1,0,.11.42.42,0,0,1,0,.1.18.18,0,0,1,0,.09.09.09,0,0,1,0,.06,0,0,0,0,0,0,0,.21.21,0,0,1,0,.06.41.41,0,0,0,0,.09.46.46,0,0,0-.07.07.43.43,0,0,1-.09.1l-.11.12L33.27,32.6l-.15.13V28.37l5.5-5.5-5.5-5.5V13l.15.12,8.52,8.53.11.11.09.1.07.08a.35.35,0,0,0,0,.08.21.21,0,0,1,0,.06v0a.15.15,0,0,1,0,.06.36.36,0,0,1,0,.09.49.49,0,0,1,0,.11.42.42,0,0,1,0,.1,10.13,10.13,0,0,1,0,.25,1.4,1.4,0,0,1,0,.29Z"/><path class="cls-1" d="M27.38,9s0,.08,0,.12l0,.1a.19.19,0,0,1,0,.1l0,.09,0,.08s0,0,0,0,0,0,0,0l0,0-.06.08-.05.07a.6.6,0,0,1-.08.08l-.11.11L19.2,17.63l-.13.12V13.82l4.95-5L19.07,3.92V0a.69.69,0,0,1,.13.11l7.67,7.68.11.1.08.09.05.07.06.07,0,.06v0a.13.13,0,0,1,0,.05.2.2,0,0,0,0,.08l0,.1a.16.16,0,0,1,0,.09l0,.11s0,.08,0,.11a1.13,1.13,0,0,1,0,.26Z"/><path class="cls-1" d="M10.21,18.06s0,.06,0,.1,0,.05,0,.08a.29.29,0,0,0,0,.09.59.59,0,0,1,0,.08.09.09,0,0,1,0,.06s0,0,0,.05v0l0,0a.43.43,0,0,0,0,.07l-.05.06-.07.07-.09.09L3.27,25.38a.52.52,0,0,1-.11.1V22.15L7.36,18l-4.2-4.2V10.42a.52.52,0,0,1,.11.1L9.78,17l.09.09a.46.46,0,0,1,.07.07l.05.06,0,.06,0,.05v0a.08.08,0,0,1,0,0s0,0,0,.07a.3.3,0,0,1,0,.08.24.24,0,0,0,0,.08s0,.06,0,.09,0,.06,0,.1a.81.81,0,0,1,0,.22Z"/><path class="cls-5" d="M349.37,33.23a6,6,0,1,1-5.95,6,5.95,5.95,0,0,1,5.95-6Zm0,.78a5.17,5.17,0,1,1-5.17,5.17A5.18,5.18,0,0,1,349.37,34Zm-2.95,8.85V35.49h3.27a4.43,4.43,0,0,1,1.5.2,1.67,1.67,0,0,1,.81.7,2.07,2.07,0,0,1,.31,1.11,1.86,1.86,0,0,1-.51,1.33,2.63,2.63,0,0,1-1.56.68,2.43,2.43,0,0,1,.58.37,4.5,4.5,0,0,1,.81,1l1.28,2h-1.22l-1-1.53c-.28-.44-.52-.78-.7-1a2.48,2.48,0,0,0-.49-.49,1.45,1.45,0,0,0-.45-.19,2.35,2.35,0,0,0-.54,0H347.4v3.27Zm1-4.11h2.09a3.2,3.2,0,0,0,1.05-.14,1.11,1.11,0,0,0,.57-.44,1.24,1.24,0,0,0,.19-.67,1.1,1.1,0,0,0-.38-.86,1.78,1.78,0,0,0-1.19-.33H347.4v2.44Z"/></g></g></svg>