<svg xmlns="http://www.w3.org/2000/svg" viewBox="0 0 291.17 128.2"><title>IncubateIND</title><g id="Layer_2" data-name="Layer 2"><g id="Layer_1-2" data-name="Layer 1"><path d="M.06,64.1V1.42C.06.3.3,0,1.48,0Q63.9.09,126.37,0c1.24,0,1.59.24,1.54,1.53a31.12,31.12,0,0,0,0,4.73c0,1.18-.36,1.47-1.42,1.3a3.84,3.84,0,0,0-.83,0Q67.58,7.56,9.44,7.5c-1.35,0-1.83.23-1.83,1.77q.09,54.89,0,109.84c0,1.3.42,1.54,1.6,1.54,35.65-.06,71.36,0,107-.06,1.36,0,1.77.29,1.65,1.65a29.43,29.43,0,0,0,0,4.6c.06,1.18-.35,1.48-1.42,1.3h-.29q-57.28,0-114.57.06c-1.24,0-1.59-.29-1.59-1.59Q.09,95.35.06,64.1Z"/><path d="M145.38,106.83a2.22,2.22,0,0,0,.29-1.65c0-6.85.06-13.69,0-20.48,0-1,.24-1.42,1.3-1.3a34.43,34.43,0,0,0,4.31,0c.71,0,.94.24.94.95v42.26c0,.82-.29,1-1.06.94a48.77,48.77,0,0,0-5.13,0c-1,.06-1.36-.29-1.6-1.24-2.3-8.73-4.66-17.41-7-26.15a12,12,0,0,0-.83-2.3v28.45c0,.89-.12,1.24-1.12,1.18a34.43,34.43,0,0,0-4.31,0c-1.06.06-1.24-.35-1.24-1.3.06-6.19,0-12.39,0-18.53v-23c0-1,.24-1.36,1.3-1.36,2.18.06,4.37.12,6.55,0,1-.06,1.36.36,1.6,1.24q2.74,10.55,5.6,21A6.42,6.42,0,0,0,145.38,106.83Z"/><path d="M146.56,62.86V39.55c0-1.13.23-1.42,1.35-1.36a19.89,19.89,0,0,0,3.78,0c1.12-.12,1.3.35,1.24,1.36-.06,8,0,16,0,24V80.86c0,1-.18,1.42-1.3,1.36a31,31,0,0,0-4.72,0c-1.06.06-1.42-.35-1.65-1.3-2.48-9.26-5-18.47-7.56-27.74a3.07,3.07,0,0,0-.59-1.3v1.36c0,9.15-.06,18.3.06,27.51,0,1.29-.35,1.53-1.53,1.47a26.49,26.49,0,0,0-3.78,0c-.89.06-1.18-.24-1.18-1.18.06-6.2,0-12.39,0-18.53v-23c0-1,.29-1.24,1.24-1.24,2.24.06,4.49.06,6.67,0,.83,0,1.12.23,1.3,1,2.12,7.79,4.25,15.52,6.37,23.32.06.11.06.23.12.35S146.5,62.86,146.56,62.86Z"/><path d="M219.51,58.73c3.48,1.71,4.61,4.66,4.78,8.14a28.1,28.1,0,0,1-.35,8.33A8.4,8.4,0,0,1,215.73,82c-4,.18-8.08.06-12.16.18-1,0-.88-.53-.88-1.18V61.92c0-7.5,0-15-.06-22.49,0-1.06.3-1.3,1.3-1.3,3.6.06,7.14.06,10.74.12,5.37.12,8.68,3.36,8.85,8.67a27.92,27.92,0,0,1-.23,6.26,7.65,7.65,0,0,1-3.78,5.55ZM209.89,69h0v3c0,1.18-.41,2.83.18,3.48s2.36.24,3.6.24c2.24,0,3.36-1,3.48-3.25a49.38,49.38,0,0,0,0-6c-.18-2.83-1.42-3.89-4.31-3.95-.71,0-1.42.06-2.06,0s-.95.17-.95.94c.06,1.83.06,3.72.06,5.55Zm-3.34-19.15h0v2.87c0,2.86,0,2.86,4.77,2.47,3.44-.27,4.67-1.1,5.11-3.24a13,13,0,0,0,.18-3.25c-.18-3.31-1.59-4.08-6.88-4.08-.62,0-1.24.06-1.85,0-1,0-1.33.17-1.33.77Z"/><path d="M127.85,82.93q0,21.69.06,43.38c0,1.24-.36,1.6-1.54,1.54a46.7,46.7,0,0,0-5,0c-.88.06-1.18-.3-1.06-1.12a2.81,2.81,0,0,0,0-.71q0-43.21-.06-86.36c0-1.47.42-1.77,1.77-1.71a41.46,41.46,0,0,0,4.73,0c.88-.06,1.18.24,1.18,1.12-.06,3.66,0,7.32,0,11C127.85,61,127.85,72,127.85,82.93Z"/><path d="M155.23,105.42V84.64c0-.77,0-1.3,1.07-1.3,3.83.06,7.73-.06,11.57.12,5.07.24,8.61,3.66,8.79,8.79q.43,13.2,0,26.33c-.18,5.19-3.9,8.74-9.21,8.91-3.78.12-7.55,0-11.27.06-1.06,0-1-.59-1-1.24V105.42Zm7.32.12h0v12.15c0,3.19,0,3.19,3.25,3.19,2.54,0,3.6-1.06,3.66-3.66V93.67c0-2.48-1.06-3.54-3.42-3.54-.65,0-1.3.06-1.95,0-1.18-.18-1.6.18-1.54,1.48C162.61,96.21,162.55,100.87,162.55,105.54Z"/><path d="M199.62,56.43c0,5.37.06,10.68,0,16.05-.06,4-1.3,7.56-5.25,9.21-4.13,1.71-8.38,1.65-12.16-1.18A8.7,8.7,0,0,1,179,74.25a32.09,32.09,0,0,1-.24-4.19q0-15.14-.05-30.28c0-1.36.41-1.65,1.59-1.53a25.85,25.85,0,0,0,4.31,0c1.06-.06,1.3.29,1.3,1.3-.06,10.5,0,21,0,31.52a9,9,0,0,0,.23,2.77,2.92,2.92,0,0,0,3.13,2.36,3,3,0,0,0,3.37-2.3,7.11,7.11,0,0,0,.23-2.19c0-10.68,0-21.36-.06-32.1,0-1.19.3-1.54,1.42-1.42a32.54,32.54,0,0,0,4.19,0c.94-.06,1.12.23,1.12,1.12C199.62,45,199.62,50.7,199.62,56.43Z"/><path d="M237.28,38.25c1.41,0,2.77.06,4.19,0,.65,0,1,.17,1.12.88C244,48,245.42,56.9,246.84,65.75c.77,4.9,1.59,9.8,2.42,14.7.29,1.71.29,1.71-1.48,1.71-1.47,0-2.95-.06-4.48,0-.83.06-1.12-.29-1.24-1.06-.24-2-.59-4-.83-5.9-.06-.71-.35-1-1.06-1-2.13.06-4.25.06-6.43,0-.89-.06-1.13.3-1.24,1.06-.24,2-.59,4-.83,5.91-.06.71-.29.94-1,.94-1.66-.06-3.25-.06-4.9,0-.71,0-.83-.23-.71-.88Q228,63.66,230.78,46c.36-2.36.77-4.66,1.13-7,.06-.59.29-.77.88-.77,1.48.12,3,.06,4.49.06Zm2.77,29.8h0c-1.06-7-2.06-13.81-3.13-20.65h-.17c-1.07,6.84-2.07,13.75-3.13,20.65Z"/><path d="M155.77,60.15c0-4.25-.18-8.5,0-12.69.36-8,6.08-10.51,12.4-9.57,5.49.77,8.14,4.25,8.32,10.39.06,1.3,0,2.6,0,3.9,0,.71-.12,1-.88,1-1.66-.06-3.37-.06-5,0-.71,0-.89-.24-.83-.88.06-1.54.06-3.07,0-4.61-.17-2.71-2.18-4.07-4.72-3.24A2.94,2.94,0,0,0,163,47.28c-.24,8.62-.3,17.29,0,25.91.06,2.42,2,3.48,4.42,2.89,1.54-.35,2.36-1.47,2.42-3.42s.06-4,0-6c0-.71.24-1,.95-1,1.65.06,3.36,0,5,0,.48,0,.83.06.83.65-.12,3.07.3,6.14-.41,9.15a8.68,8.68,0,0,1-8,7c-3.6.41-7.08,0-9.8-2.78-2.06-2.18-2.6-4.84-2.6-7.73-.11-4-.11-7.91,0-11.86Z"/><path d="M271.92,60.2V39.55c0-1,.18-1.36,1.24-1.3,5.61.06,11.16.06,16.77,0,1,0,1.24.29,1.18,1.24-.06,1.35-.06,2.71,0,4,.06,1-.3,1.18-1.18,1.12-3.25-.06-6.5,0-9.74-.06-.89,0-1.12.24-1.06,1.07.05,3.3.05,6.61,0,9.91,0,.83.17,1.12,1.06,1.06,2.48-.05,5,0,7.38-.05.94,0,1.18.29,1.12,1.18-.06,1.35-.06,2.71,0,4,.06.94-.18,1.3-1.18,1.24-2.48-.06-5,0-7.38-.06-.83,0-1,.24-1,1,.05,3.54.05,7.09,0,10.63,0,.76.23,1,1,1,3.3-.06,6.61,0,9.92-.06.82,0,1.18.18,1.12,1.06-.06,1.48-.06,3,0,4.49,0,.71-.18,1-.95,1-5.78,0-11.51-.06-17.29,0-1,0-.95-.53-.95-1.18C271.92,74.08,271.92,67.11,271.92,60.2Z"/><path d="M53.83,94.73c-1,0-1.95-.06-2.95,0-1.24.12-1.24-.35-.83-1.35q4.88-12.31,9.74-24.62,6.1-15.5,12.22-31a1.51,1.51,0,0,1,1.77-1.18c1.89,0,3.84,0,5.73,0,.94,0,1.35,0,.94,1.23-4.84,12.1-9.62,24.26-14.4,36.36C63.51,80.63,61,87,58.49,93.44a1.66,1.66,0,0,1-2,1.29A21.46,21.46,0,0,0,53.83,94.73Z"/><path d="M263.31,63.51V80.92c0,1-.24,1.3-1.24,1.24a39.39,39.39,0,0,0-4.61,0c-1.06.06-1.29-.29-1.29-1.3.05-10.92,0-21.84,0-32.81,0-.83-.06-1.66,0-2.54.05-.71-.18-.95-1-.95-1.83.06-3.6,0-5.43.06-.77,0-.94-.23-.94-.94.06-1.54.06-3.07,0-4.61-.06-.82.29-.88,1-.88H269.5c.71,0,1,.12.95.88-.06,1.48-.06,3,0,4.49.06.89-.3,1.12-1.12,1.06-1.65-.06-3.37.06-5-.06-.94-.06-1.18.24-1.18,1.18C263.37,51.71,263.31,57.61,263.31,63.51Z"/><path d="M104,65.69c-5.72-2.06-11.15-4-16.59-5.9-1-.35-1.41-.77-1.29-1.83a34.46,34.46,0,0,0,0-4.19c-.06-1.18.23-1.47,1.41-1,7.2,2.71,14.4,5.31,21.61,8,1.41.53,3.36.59,4.07,1.77s.18,2.89.18,4.36a7.11,7.11,0,0,0,0,1.13c.11.88-.24,1.24-1.13,1.53-8.26,3-16.52,6.08-24.73,9.09-1.41.53-1.41.53-1.41-1.06,0-1.42.06-2.89,0-4.31a1.33,1.33,0,0,1,1.12-1.59C92.73,69.77,98.22,67.76,104,65.69Z"/><path d="M26.44,65.75c5.67,2.07,11.1,4,16.59,5.91.88.29,1.3.64,1.24,1.65a41.29,41.29,0,0,0,0,4.72c0,.77-.06,1.12-1,.77-8.49-3.19-17-6.26-25.49-9.39-.59-.23-.83-.53-.71-1.12V68c0-1.83-.59-4.08.23-5.49s3.25-1.48,5-2.13c6.91-2.6,13.81-5.07,20.66-7.67,1.24-.47,1.48-.12,1.36,1-.06.95,0,1.95,0,2.95,0,2.66,0,2.66-2.6,3.6-4.72,1.66-9.38,3.37-14.11,5C27.21,65.4,27,65.58,26.44,65.75Z"/></g></g></svg>