<svg xmlns="http://www.w3.org/2000/svg" viewBox="0 0 47.34 63.12"><defs><style>.cls-1{fill:#00d28b;}</style></defs><title>Time</title><g id="Layer_2" data-name="Layer 2"><g id="Layer_1-2" data-name="Layer 1"><path class="cls-1" d="M44.38,0H3A3,3,0,0,0,0,3v2a3,3,0,0,0,3,3c0,11.22,6.29,20.68,14.9,23.67C9.25,34.55,3,44,3,55.23a3,3,0,0,0-3,3v2a3,3,0,0,0,3,3H44.38a3,3,0,0,0,3-3v-2a3,3,0,0,0-3-3c0-11.21-6.29-20.68-14.89-23.67,8.6-3,14.89-12.45,14.89-23.67a3,3,0,0,0,3-3V3A3,3,0,0,0,44.38,0ZM36.49,55.23H10.85c0-9.55,5.7-17.75,12.82-17.75S36.49,45.68,36.49,55.23Z"/></g></g></svg>