<svg xmlns="http://www.w3.org/2000/svg" viewBox="0 0 91.43 91.43"><defs><style>.cls-1{fill:#4de94a;}</style></defs><title>fourth</title><g id="Layer_2" data-name="Layer 2"><g id="Layer_1-2" data-name="Layer 1"><path class="cls-1" d="M78,0H13.39a8,8,0,0,0-8,8V75.36H2.68A2.68,2.68,0,0,0,0,78v2.68A10.72,10.72,0,0,0,10.71,91.43H70A10.72,10.72,0,0,0,80.72,80.72V21.43h8a2.68,2.68,0,0,0,2.67-2.68V13.39A13.4,13.4,0,0,0,78,0ZM10.71,86.08a5.36,5.36,0,0,1-5.35-5.36H59.29a10.61,10.61,0,0,0,1.44,5.36ZM75.36,18.75v62a5.36,5.36,0,1,1-10.71,0V78A2.68,2.68,0,0,0,62,75.36H10.71V8a2.69,2.69,0,0,1,2.68-2.68h62Zm10.72-2.68H80.72V5.82a8,8,0,0,1,5.36,7.57Z"/><path class="cls-1" d="M56.16,10h-28A2.25,2.25,0,0,0,26,12.24V30.88a2.24,2.24,0,0,0,.89,1.79l9.93,7.53a15.7,15.7,0,1,0,10.82,0l9.93-7.53a2.24,2.24,0,0,0,.89-1.79V12.24A2.25,2.25,0,0,0,56.16,10ZM33.05,31.74l-2.61-2V14.48h2.61Zm4.49-17.26h9.27V35.15l-4.63,3.51-4.64-3.51ZM53.39,54.94A11.21,11.21,0,1,1,42.18,43.73,11.22,11.22,0,0,1,53.39,54.94Zm-2.08-23.2V14.48h2.6V29.76Z"/><path class="cls-1" d="M50.49,52.86a2.26,2.26,0,0,0-1.62-1.49l-3.11-.74L44.1,47.9a2.25,2.25,0,0,0-3.84,0L38.6,50.63l-3.11.74A2.25,2.25,0,0,0,34.3,55l2.09,2.42-.27,3.18a2.28,2.28,0,0,0,.92,2,2.26,2.26,0,0,0,2.19.25l3-1.23,2.94,1.23a2.29,2.29,0,0,0,2.19-.25,2.26,2.26,0,0,0,.92-2L48,57.44,50.05,55A2.26,2.26,0,0,0,50.49,52.86ZM44,55.22a2.26,2.26,0,0,0-.54,1.65l0,.44-.4-.17a2.21,2.21,0,0,0-.87-.17,2.18,2.18,0,0,0-.87.17l-.4.17,0-.44a2.27,2.27,0,0,0-.53-1.65l-.29-.33.43-.1a2.27,2.27,0,0,0,1.4-1l.23-.37.22.37a2.32,2.32,0,0,0,1.41,1l.42.1Z"/></g></g></svg>