<svg xmlns="http://www.w3.org/2000/svg" viewBox="0 0 92.12 92.12"><defs><style>.cls-1{opacity:0.9;}.cls-2{fill:#4de94a;}</style></defs><title>second</title><g id="Layer_2" data-name="Layer 2"><g id="Layer_1-2" data-name="Layer 1"><g class="cls-1"><path class="cls-2" d="M84,0H8.1A8.1,8.1,0,0,0,0,8.1v4.11A29.54,29.54,0,0,0,6.45,30.6a30,30,0,0,0,13.86,9.54l2.87,1A26.87,26.87,0,0,0,38,52.66v4.2a2.71,2.71,0,0,1-2.7,2.7,8.1,8.1,0,0,0-8.1,8.09v2.7h-2.7a2.7,2.7,0,0,0-2.7,2.7V86.73h-2.7a2.7,2.7,0,1,0,0,5.39h54a2.7,2.7,0,1,0,0-5.39h-2.7V73.05a2.7,2.7,0,0,0-2.7-2.7H65v-2.7a8.11,8.11,0,0,0-8.1-8.09,2.7,2.7,0,0,1-2.7-2.7v-4.2A26.89,26.89,0,0,0,68.94,41.12l3-1,0,0A29.22,29.22,0,0,0,85.67,30.6a29.54,29.54,0,0,0,6.45-18.39V8.1A8.1,8.1,0,0,0,84,0ZM10.67,27.23a24.12,24.12,0,0,1-5.27-15V8.1A2.7,2.7,0,0,1,8.1,5.4h8.56L19.4,30.12a27,27,0,0,0,.83,4.23A24.39,24.39,0,0,1,10.67,27.23Zm16.5,59.5v-11H65v11ZM50.86,48a2.7,2.7,0,0,0-2.1,2.63v6.26a8.11,8.11,0,0,0,8.1,8.1,2.7,2.7,0,0,1,2.7,2.69v2.7h-27v-2.7A2.7,2.7,0,0,1,35.27,65a8.11,8.11,0,0,0,8.09-8.1V50.6A2.7,2.7,0,0,0,41.27,48a21.41,21.41,0,0,1-16.5-18.45L22.09,5.4H70L67.36,29.52A21.41,21.41,0,0,1,50.86,48ZM86.73,12.21A24,24,0,0,1,71.87,34.43a25.88,25.88,0,0,0,.85-4.31L75.47,5.4H84a2.7,2.7,0,0,1,2.7,2.7Z"/></g><path class="cls-2" d="M38.68,33.77c5.66-5.35,9.64-9.15,9.64-12.33,0-2.15-1.19-3.33-3.14-3.33-1.59,0-2.84,1.08-4,2.26l-2.79-2.78c2.18-2.34,4.26-3.52,7.44-3.52,4.38,0,7.37,2.8,7.37,7.08,0,3.74-3.49,7.73-7.13,11.5,1.14-.13,2.69-.26,3.72-.26h4.47v4.33H38.68Z"/></g></g></svg>