<svg xmlns="http://www.w3.org/2000/svg" viewBox="0 0 92.12 92.12"><defs><style>.cls-1{opacity:0.9;}.cls-2{fill:#4de94a;}</style></defs><title>third</title><g id="Layer_2" data-name="Layer 2"><g id="Layer_1-2" data-name="Layer 1"><g class="cls-1"><path class="cls-2" d="M84,0H8.1A8.1,8.1,0,0,0,0,8.1v4.11A29.54,29.54,0,0,0,6.45,30.6a30,30,0,0,0,13.86,9.54l2.87,1A26.87,26.87,0,0,0,38,52.66v4.2a2.71,2.71,0,0,1-2.7,2.7,8.1,8.1,0,0,0-8.1,8.09v2.7h-2.7a2.7,2.7,0,0,0-2.7,2.7V86.73h-2.7a2.7,2.7,0,1,0,0,5.39h54a2.7,2.7,0,1,0,0-5.39h-2.7V73.05a2.7,2.7,0,0,0-2.7-2.7H65v-2.7a8.11,8.11,0,0,0-8.1-8.09,2.7,2.7,0,0,1-2.7-2.7v-4.2A26.89,26.89,0,0,0,68.94,41.12l3-1,0,0A29.22,29.22,0,0,0,85.67,30.6a29.54,29.54,0,0,0,6.45-18.39V8.1A8.1,8.1,0,0,0,84,0ZM10.67,27.23a24.12,24.12,0,0,1-5.27-15V8.1A2.7,2.7,0,0,1,8.1,5.4h8.56L19.4,30.12a27,27,0,0,0,.83,4.23A24.39,24.39,0,0,1,10.67,27.23Zm16.5,59.5v-11H65v11ZM50.86,48a2.7,2.7,0,0,0-2.1,2.63v6.26a8.11,8.11,0,0,0,8.1,8.1,2.7,2.7,0,0,1,2.7,2.69v2.7h-27v-2.7A2.7,2.7,0,0,1,35.27,65a8.11,8.11,0,0,0,8.09-8.1V50.6A2.7,2.7,0,0,0,41.27,48a21.41,21.41,0,0,1-16.5-18.45L22.09,5.4H70L67.36,29.52A21.41,21.41,0,0,1,50.86,48ZM86.73,12.21A24,24,0,0,1,71.87,34.43a25.88,25.88,0,0,0,.85-4.31L75.47,5.4H84a2.7,2.7,0,0,1,2.7,2.7Z"/></g><path class="cls-2" d="M38.15,34l2.37-3.25A7.19,7.19,0,0,0,45.39,33C47.56,33,49,32,49,30.33c0-1.95-1.14-3.15-6-3.15V23.53c4,0,5.25-1.21,5.25-3,0-1.56-1-2.44-2.74-2.44a6.06,6.06,0,0,0-4.16,1.94l-2.6-3.14a10.5,10.5,0,0,1,7-2.84c4.62,0,7.67,2.19,7.67,6.1,0,2.29-1.32,3.93-3.71,4.93v.15c2.57.73,4.43,2.54,4.43,5.41,0,4.14-3.79,6.48-8.26,6.48A9.81,9.81,0,0,1,38.15,34Z"/></g></g></svg>