<?xml version="1.0" encoding="utf-8"?>
<!-- Generator: Adobe Illustrator 23.0.6, SVG Export Plug-In . SVG Version: 6.00 Build 0)  -->
<svg version="1.1" id="Layer_1" xmlns="http://www.w3.org/2000/svg" xmlns:xlink="http://www.w3.org/1999/xlink" x="0px" y="0px"
	 viewBox="0 0 141.7 141.7" style="enable-background:new 0 0 141.7 141.7;" xml:space="preserve">
<style type="text/css">
	.st0{fill:url(#SVGID_1_);}
	.st1{fill:#FFFFFF;}
</style>
<title>dishathon2020_logo</title>
<linearGradient id="SVGID_1_" gradientUnits="userSpaceOnUse" x1="-3.7099" y1="63.149" x2="139.6001" y2="82.339" gradientTransform="matrix(1 0 0 -1 0 144)">
	<stop  offset="0" style="stop-color:#EF4B23"/>
	<stop  offset="0.18" style="stop-color:#E8492A"/>
	<stop  offset="0.44" style="stop-color:#D3433E"/>
	<stop  offset="0.76" style="stop-color:#B23A5E"/>
	<stop  offset="1" style="stop-color:#94327B"/>
</linearGradient>
<rect class="st0" width="141.7" height="141.7"/>
<path class="st1" d="M126.1,63c0-0.5,0.4-0.9,0.9-0.9l0,0h5.5c0.5,0,0.9,0.4,0.9,0.9c0,0.5-0.4,0.9-0.9,0.9c0,0,0,0,0,0H127
	C126.5,63.9,126.1,63.5,126.1,63z M135.1,72.9h-5.5c-0.5,0-0.9,0.4-0.9,0.9s0.4,0.9,0.9,0.9h5.5c0.5,0,0.9-0.4,0.9-0.9
	S135.6,72.9,135.1,72.9z M136.4,67.4h-7.1c-0.5-0.1-1,0.3-1,0.8s0.3,1,0.8,1c0.1,0,0.1,0,0.2,0h7.1c0.5,0.1,1-0.3,1-0.8
	s-0.3-1-0.8-1C136.5,67.4,136.4,67.4,136.4,67.4z M105.2,73.8c-1-1-1.5-2.4-1.4-3.8c-0.1-1.4,0.4-2.8,1.4-3.8c2.4-1.7,5.7-1.7,8.1,0
	c1,1,1.5,2.4,1.4,3.8c0.1,1.4-0.4,2.8-1.4,3.8C110.9,75.5,107.7,75.5,105.2,73.8L105.2,73.8z M107,69.9c-0.1,0.8,0.1,1.7,0.6,2.4
	c1,1,2.6,1,3.5,0c0,0,0,0,0,0c0.4-0.7,0.6-1.5,0.6-2.4c0.1-0.8-0.1-1.6-0.6-2.3c-1-1-2.6-1-3.6,0C107.1,68.3,106.9,69.1,107,69.9z
	 M93.1,74.9h2c0.1,0,0.3-0.1,0.4-0.2c0.1-0.1,0.2-0.3,0.2-0.4v-6.1c0.6-0.7,1.5-1.2,2.4-1.3c1.2,0,1.7,0.7,1.7,2.2v5.2
	c0,0.1,0,0.3,0.2,0.4c0.1,0.1,0.2,0.2,0.4,0.2h2c0.1,0,0.3-0.1,0.4-0.2c0.1-0.1,0.2-0.3,0.2-0.4v-5.2c0.1-1.2-0.3-2.4-1.1-3.3
	c-0.8-0.7-1.9-1.1-3-1.1c-1.2,0-2.3,0.5-3.2,1.3v-5c0-0.1-0.1-0.3-0.2-0.4c-0.1-0.1-0.2-0.2-0.4-0.2h-2c-0.1,0-0.3,0.1-0.4,0.2
	c-0.1,0.1-0.2,0.3-0.2,0.4v13.3c0,0.1,0.1,0.3,0.2,0.4C92.8,74.8,92.9,74.9,93.1,74.9L93.1,74.9z M42.8,70.5c0.7,0.2,1.3,0.4,2,0.5
	c0.6,0.1,1.2,0.3,1.7,0.5c0.5,0.2,0.7,0.4,0.7,0.7c0,0.6-0.7,0.9-2.1,0.9c-0.7,0.1-1.3-0.1-1.8-0.6c-0.2-0.3-0.6-0.5-1-0.5H41
	c-0.2,0-0.3,0.1-0.4,0.2c-0.1,0.1-0.2,0.3-0.2,0.4c0,1.7,1.7,2.6,5,2.6c3.3,0,5-1,5-2.9c0-0.7-0.2-1.3-0.7-1.8
	c-0.5-0.5-1.1-0.8-1.7-1c-0.7-0.2-1.3-0.4-2-0.5c-0.6-0.1-1.2-0.3-1.7-0.5c-0.5-0.2-0.7-0.4-0.7-0.7c0-0.6,0.6-0.9,1.8-0.9
	c0.7-0.1,1.3,0.1,1.8,0.6c0.2,0.3,0.6,0.5,1,0.5h1.3c0.1,0,0.3-0.1,0.4-0.2c0.1-0.1,0.2-0.3,0.2-0.4c0-1.7-1.7-2.6-5-2.6
	c-3.1,0-4.7,1-4.7,2.9c0,0.6,0.2,1.3,0.7,1.7C41.6,69.9,42.2,70.3,42.8,70.5z M63,70.3h3.8c0.1,0,0.3,0,0.4-0.2
	c0.1-0.1,0.2-0.2,0.2-0.4v-1.1c0-0.2-0.1-0.3-0.2-0.4c-0.1-0.1-0.3-0.2-0.4-0.2H63c-0.1,0-0.3,0.1-0.4,0.2c-0.1,0.1-0.2,0.3-0.2,0.4
	v1.1C62.4,70,62.6,70.3,63,70.3C62.9,70.3,63,70.3,63,70.3z M37.3,64.2h1.1c0.3,0,0.6-0.1,0.8-0.3c0.2-0.2,0.3-0.5,0.3-0.8v-0.3
	c0-0.3-0.1-0.6-0.3-0.8c-0.2-0.2-0.5-0.3-0.8-0.3h-1.1c-0.3,0-0.6,0.1-0.8,0.3c-0.2,0.2-0.3,0.5-0.3,0.8v0.3c0,0.3,0.1,0.6,0.3,0.8
	C36.8,64.1,37,64.2,37.3,64.2z M51.8,74.9h2c0.1,0,0.3,0,0.4-0.2c0.1-0.1,0.2-0.3,0.2-0.4v-6.1c0.6-0.8,1.5-1.2,2.5-1.3
	c1.2,0,1.7,0.7,1.7,2.2v5.2c0,0.1,0,0.3,0.2,0.4c0.1,0.1,0.2,0.2,0.4,0.2h2c0.2,0,0.3,0,0.4-0.2c0.1-0.1,0.2-0.3,0.2-0.4v-5.2
	c0.1-1.2-0.3-2.4-1.1-3.3c-0.8-0.7-1.9-1.1-3-1.1c-1.2,0-2.3,0.5-3.2,1.3v-5c0-0.1,0-0.3-0.2-0.4c-0.1-0.1-0.2-0.2-0.4-0.2h-2
	c-0.1,0-0.3,0.1-0.4,0.2c-0.1,0.1-0.2,0.3-0.2,0.4v13.3c0,0.1,0.1,0.3,0.2,0.4C51.6,74.8,51.7,74.9,51.8,74.9z M36.8,65.2
	c-0.1,0-0.3,0-0.4,0.2c-0.1,0.1-0.2,0.2-0.2,0.4v8.5c0,0.3,0.2,0.5,0.5,0.6c0,0,0,0,0.1,0h2c0.1,0,0.3,0,0.4-0.2
	c0.1-0.1,0.2-0.3,0.2-0.4v-8.5c0-0.1,0-0.3-0.2-0.4c-0.1-0.1-0.3-0.2-0.4-0.2L36.8,65.2z M24.2,69.9c-0.1-1.4,0.4-2.8,1.3-3.8
	c0.9-0.9,2.2-1.4,3.5-1.3c0.9,0,1.8,0.2,2.6,0.5v-4.1c0-0.2,0.1-0.3,0.2-0.4c0.1-0.1,0.2-0.2,0.4-0.2h2c0.3,0,0.6,0.2,0.6,0.5
	c0,0,0,0,0,0v13.2c0,0.1-0.1,0.3-0.2,0.4c-0.1,0.1-0.3,0.2-0.4,0.2h-1.7c-0.1,0-0.3-0.1-0.4-0.2c-0.1-0.1-0.2-0.3-0.1-0.4V74
	c-0.9,0.7-2,1-3.1,1c-1.2,0-2.4-0.4-3.3-1.3C24.6,72.7,24.1,71.3,24.2,69.9z M27.3,69.9c-0.1,0.8,0.1,1.6,0.5,2.2
	c0.4,0.5,1,0.8,1.6,0.7c0.8-0.1,1.5-0.4,2.2-0.8v-4.7c-0.6-0.2-1.3-0.3-2-0.4c-0.7-0.1-1.3,0.2-1.8,0.7
	C27.4,68.4,27.3,69.2,27.3,69.9z M116.2,74.9h2c0.1,0,0.3,0,0.4-0.2c0.1-0.1,0.2-0.3,0.2-0.4v-6.1c0.6-0.7,1.5-1.2,2.4-1.3
	c1.2,0,1.7,0.7,1.7,2.2v5.2c0,0.1,0,0.3,0.2,0.4c0.1,0.1,0.2,0.2,0.4,0.2h2c0.2,0,0.3,0,0.4-0.2c0.1-0.1,0.2-0.3,0.2-0.4v-5.2
	c0.1-1.2-0.3-2.4-1.1-3.3c-0.8-0.7-1.9-1.1-3-1.1c-1.2,0-2.3,0.5-3.2,1.3v-0.6c0-0.1-0.1-0.3-0.2-0.4c-0.1-0.1-0.3-0.2-0.4-0.2h-2
	c-0.1,0-0.3,0.1-0.4,0.2c-0.1,0.1-0.2,0.3-0.2,0.4v8.8c0,0.1,0.1,0.3,0.2,0.4C115.9,74.8,116.1,74.9,116.2,74.9L116.2,74.9z
	 M91.2,74.9c0.1,0,0.3-0.1,0.4-0.2c0.1-0.1,0.2-0.2,0.2-0.3v-0.9c0-0.1-0.1-0.3-0.2-0.4c-0.1-0.1-0.3-0.2-0.4-0.2h-0.4
	c-0.2,0-0.4,0-0.6,0.1c-0.2,0-0.4,0-0.7,0.1c-0.4,0-0.9-0.2-1.2-0.5c-0.3-0.4-0.5-0.9-0.4-1.4v-3.4h2.5c0.3,0,0.6-0.2,0.6-0.5v0V66
	c0-0.3-0.2-0.5-0.5-0.6c0,0,0,0-0.1,0H88v-4.4c0-0.1,0-0.3-0.2-0.4c-0.1-0.1-0.2-0.2-0.4-0.2h-2c-0.1,0-0.3,0.1-0.4,0.2
	c-0.1,0.1-0.2,0.3-0.2,0.4V71c0,2.7,1.3,4.1,3.9,4.1C89.6,75.1,90.4,75,91.2,74.9L91.2,74.9z M75.6,74.9c-0.2,0-0.3-0.1-0.4-0.2
	c-0.1-0.1-0.2-0.2-0.2-0.4v-0.3c-1,0.7-2.1,1-3.3,1c-1.1,0-2.2-0.2-3.1-0.8c-0.8-0.5-1.2-1.4-1.2-2.3c0-0.9,0.4-1.8,1.2-2.3
	c0.9-0.6,2-0.9,3.1-0.8h3c0.1-0.5-0.1-1.1-0.4-1.5c-0.4-0.3-0.9-0.5-1.4-0.4c-0.6-0.1-1.3,0.2-1.8,0.6c-0.2,0.3-0.6,0.5-1,0.5h-1.4
	c-0.3,0-0.6-0.2-0.6-0.5c0,0,0,0,0,0c0-1.7,1.7-2.6,4.9-2.6c1.2-0.1,2.4,0.3,3.5,1c0.9,0.7,1.4,1.8,1.3,3v5.6c0,0.1-0.1,0.3-0.2,0.4
	c-0.1,0.1-0.3,0.2-0.4,0.2L75.6,74.9z M74.8,70.8H72c-0.4,0-0.7,0.1-1,0.3c-0.2,0.2-0.4,0.5-0.4,0.8c0,0.3,0.1,0.6,0.4,0.8
	c0.3,0.2,0.7,0.3,1.1,0.3c1,0,1.9-0.3,2.7-0.8L74.8,70.8z M83.7,70.2c0.1-0.1,0.2-0.2,0.2-0.4v-1.1c0-0.2-0.1-0.3-0.2-0.4
	c-0.1-0.1-0.3-0.2-0.4-0.2h-3.8c-0.1,0-0.3,0.1-0.4,0.2C79,68.4,79,68.5,79,68.7v1.1c0,0.3,0.2,0.5,0.5,0.6c0,0,0,0,0.1,0h3.8
	C83.4,70.3,83.6,70.2,83.7,70.2L83.7,70.2z M12.6,68.6c0,0.3,0.3,0.6,0.6,0.6c0.3,0,0.6-0.3,0.6-0.6c0-0.3-0.3-0.6-0.6-0.6
	c0,0,0,0,0,0C12.8,67.9,12.6,68.2,12.6,68.6C12.6,68.6,12.6,68.6,12.6,68.6z M77.1,80.6c0.1-0.1,0.3-0.1,0.5-0.2l0.6-0.2
	c0.2-0.1,0.5-0.1,0.7-0.2c0.2-0.1,0.4-0.2,0.6-0.3c0.2-0.1,0.3-0.3,0.5-0.5c0.1-0.2,0.2-0.5,0.2-0.7c0-0.3,0-0.5-0.2-0.8
	c-0.1-0.2-0.3-0.4-0.4-0.5c-0.2-0.1-0.4-0.2-0.6-0.2c-0.3-0.1-0.5-0.1-0.8-0.1h-0.5c-0.3,0-0.6,0.1-0.9,0.2
	c-0.3,0.1-0.5,0.3-0.7,0.5c-0.2,0.2-0.3,0.4-0.3,0.7c0,0.1,0,0.2,0.1,0.2c0,0.1,0.1,0.1,0.1,0.1H76h0.4c0.2,0,0.4-0.1,0.5-0.3
	c0.2-0.3,0.5-0.5,0.9-0.4H78c0.2,0,0.5,0,0.7,0.1c0.1,0.1,0.2,0.3,0.2,0.5c0,0.1-0.1,0.3-0.2,0.3c-0.1,0.1-0.3,0.2-0.5,0.2l-0.6,0.2
	c-0.2,0.1-0.5,0.1-0.7,0.2c-0.2,0.1-0.4,0.2-0.6,0.3c-0.2,0.1-0.4,0.3-0.5,0.5c-0.1,0.2-0.2,0.5-0.2,0.8v0.5c0,0.1,0,0.2,0.1,0.2
	c0.1,0.1,0.1,0.1,0.2,0.1h3.8c0.1,0,0.2,0,0.2-0.1c0.1-0.1,0.1-0.1,0.1-0.2v-0.3c0-0.1-0.1-0.2-0.1-0.2c-0.1-0.1-0.1-0.1-0.2-0.1
	h-2.9C76.9,80.7,77,80.6,77.1,80.6L77.1,80.6z M74.9,78.2c0.1,0.4,0.2,0.8,0.2,1.2c0,0.4-0.1,0.8-0.2,1.2c-0.1,0.3-0.3,0.6-0.5,0.8
	c-0.2,0.2-0.5,0.3-0.8,0.4c-0.3,0.1-0.7,0.1-1,0.1h-0.2c-0.3,0-0.7,0-1-0.1c-0.3-0.1-0.5-0.2-0.8-0.4c-0.2-0.2-0.4-0.5-0.5-0.8
	c-0.1-0.4-0.2-0.8-0.2-1.2c0-0.4,0.1-0.8,0.2-1.2c0.1-0.3,0.3-0.6,0.5-0.8c0.2-0.2,0.5-0.3,0.8-0.4c0.3-0.1,0.7-0.1,1-0.1h0.2
	c0.3,0,0.7,0,1,0.1c0.3,0.1,0.5,0.2,0.8,0.4C74.6,77.6,74.7,77.9,74.9,78.2L74.9,78.2z M73.8,79.4c0-1-0.4-1.5-1.3-1.5
	s-1.3,0.5-1.3,1.5s0.4,1.5,1.3,1.5S73.8,80.3,73.8,79.4L73.8,79.4z M85.6,78.2c0.1,0.4,0.2,0.8,0.2,1.2c0,0.4-0.1,0.8-0.2,1.2
	c-0.1,0.3-0.3,0.6-0.5,0.8c-0.2,0.2-0.5,0.3-0.8,0.4c-0.3,0.1-0.7,0.1-1,0.1h-0.2c-0.3,0-0.7,0-1-0.1c-0.3-0.1-0.5-0.2-0.8-0.4
	c-0.2-0.2-0.4-0.5-0.5-0.8c-0.1-0.4-0.2-0.8-0.2-1.2c0-0.4,0.1-0.8,0.2-1.2c0.1-0.3,0.3-0.6,0.5-0.8c0.2-0.2,0.5-0.3,0.8-0.4
	c0.3-0.1,0.7-0.1,1-0.1h0.2c0.3,0,0.7,0,1,0.1c0.3,0.1,0.5,0.2,0.8,0.4C85.3,77.6,85.5,77.9,85.6,78.2L85.6,78.2z M84.5,79.4
	c0-1-0.4-1.5-1.3-1.5S82,78.3,82,79.3s0.4,1.5,1.3,1.5S84.5,80.3,84.5,79.4L84.5,79.4z M66.3,80.5c0.1-0.1,0.3-0.1,0.5-0.2l0.6-0.2
	c0.2-0.1,0.5-0.1,0.7-0.2c0.2-0.1,0.4-0.2,0.6-0.3c0.2-0.1,0.3-0.3,0.5-0.5c0.1-0.2,0.2-0.5,0.2-0.7c0-0.3,0-0.5-0.2-0.8
	c-0.1-0.2-0.3-0.4-0.4-0.5c-0.2-0.1-0.4-0.2-0.6-0.2c-0.3-0.1-0.5-0.1-0.8-0.1h-0.5c-0.3,0-0.6,0.1-0.9,0.2
	c-0.3,0.1-0.5,0.3-0.7,0.5c-0.2,0.2-0.3,0.4-0.3,0.7c0,0.1,0,0.2,0.1,0.2c0,0.1,0.1,0.1,0.1,0.1h0.1h0.4c0.2,0,0.4-0.1,0.5-0.3
	c0.2-0.3,0.5-0.5,0.9-0.4h0.2c0.2,0,0.5,0,0.7,0.1c0.1,0.1,0.2,0.3,0.2,0.5c0,0.1-0.1,0.3-0.2,0.3c-0.1,0.1-0.3,0.2-0.5,0.2
	l-0.6,0.2c-0.2,0.1-0.5,0.1-0.7,0.2c-0.2,0.1-0.4,0.2-0.6,0.3c-0.2,0.1-0.4,0.3-0.5,0.5c-0.1,0.2-0.2,0.5-0.2,0.8v0.5
	c0,0.1,0,0.2,0.1,0.2c0.1,0.1,0.1,0.1,0.2,0.1H69c0.1,0,0.2,0,0.2-0.1c0.1-0.1,0.1-0.1,0.1-0.2v-0.3c0-0.1,0-0.2-0.1-0.2
	c-0.1-0.1-0.1-0.1-0.2-0.1h-2.8C66.1,80.7,66.2,80.6,66.3,80.5z M133.6,79.5c0,1.1-0.9,1.9-1.9,1.9c-0.6,0-1.2-0.3-1.6-0.8H88.9
	c-0.6,0.1-1.1-0.4-1.2-1c-0.1-0.6,0.4-1.1,1-1.2c0.1,0,0.1,0,0.2,0H130c0.6-0.9,1.8-1.1,2.7-0.5C133.2,78.3,133.6,78.9,133.6,79.5
	L133.6,79.5z M132.4,79.5c0-0.4-0.3-0.7-0.7-0.7c-0.4,0-0.7,0.3-0.7,0.7c0,0.4,0.3,0.7,0.7,0.7C132,80.3,132.4,80,132.4,79.5
	C132.4,79.5,132.4,79.5,132.4,79.5L132.4,79.5z M62.9,79.5c0,0.6-0.5,1.1-1.1,1.1H11c-0.4-0.9-0.7-1.9-0.8-2.9
	c-0.1-0.7-0.8-1.2-1.5-1.1c0,0-0.1,0-0.1,0c-0.6,0.1-1.2,0.1-1.8,0c-0.6-0.1-1.1-0.7-1-1.3c0-0.1,0-0.2,0.1-0.3
	c0.2-0.5-0.1-0.6-0.1-0.6c-0.7-0.4,0-0.8,0-0.8c-0.3,0-0.5-0.2-0.5-0.4c0-0.1,0-0.2,0.1-0.3c0.3-0.4,0.3-1-0.5-1.1s-0.5-0.9-0.5-0.9
	s0.4-0.8,1-1.9s0.3-1.2,0.2-1.4c-0.1-0.3-0.1-0.7,0.1-1c0.3-0.5,1-2.2,1.2-2.6c0.6-1.4,1.8-2.4,3.3-2.8c1-0.3,2.1-0.5,3.2-0.5h7.8
	c0.7-0.9,1.9-1.1,2.8-0.4c0.5,0.4,0.8,0.9,0.8,1.5c0,1.1-0.9,2-2,2c-0.6,0-1.2-0.3-1.6-0.9h-6.6c-0.7,0.1-1.2,0.7-1.1,1.4
	c0.1,0.6,0.5,1.1,1.1,1.1h3.6c0.6,0.1,1.1,0.6,1,1.2c-0.1,0.5-0.5,1-1,1h-3.7c-0.5-0.7-1.5-0.9-2.2-0.5c-0.7,0.5-0.9,1.5-0.5,2.2
	s1.5,0.9,2.2,0.5c0.2-0.1,0.3-0.3,0.5-0.5h4.1c0.6-0.9,1.8-1.1,2.7-0.5c0.9,0.6,1.1,1.8,0.5,2.7c-0.6,0.9-1.8,1.1-2.7,0.5
	c-0.2-0.1-0.4-0.3-0.5-0.5h-5.5c-0.7,0-1.2,0.6-1.2,1.2s0.6,1.2,1.2,1.2h7.7c0.6,0.1,1,0.6,1,1.2c-0.1,0.5-0.5,0.9-1,1H15
	c-0.6,0-1.1,0.5-1.1,1.1c0,0.6,0.5,1.1,1.1,1.1l0,0h46.8C62.4,78.4,62.9,78.9,62.9,79.5L62.9,79.5z M19.5,70.5
	c0,0.4,0.3,0.7,0.7,0.7c0.4,0,0.7-0.3,0.7-0.7c0-0.4-0.3-0.7-0.7-0.7h0C19.8,69.8,19.5,70.1,19.5,70.5L19.5,70.5z M22,61.8
	c0,0.4,0.3,0.8,0.8,0.8s0.8-0.3,0.8-0.8c0-0.4-0.3-0.8-0.8-0.8h0C22.4,61,22,61.4,22,61.8L22,61.8z"/>
</svg>
