<svg id="Layer_1" data-name="Layer 1" xmlns="http://www.w3.org/2000/svg" xmlns:xlink="http://www.w3.org/1999/xlink" viewBox="0 0 144 144"><defs><style>.cls-1{fill:none;}.cls-2{clip-path:url(#clip-path);}.cls-3{fill:url(#linear-gradient);}</style><clipPath id="clip-path"><path class="cls-1" d="M42.38,62.19V67h7.46a1.88,1.88,0,0,1,1.56.75,7,7,0,0,1,.74,1.68H46.56a5.58,5.58,0,0,0-4.1,1.71,5.65,5.65,0,0,0-1.73,4.14v.46a5.89,5.89,0,0,0,5.83,5.83h6.8V76.76H46.53c-.64,0-1-.49-1-1.45a1,1,0,0,1,.29-.71.88.88,0,0,1,.66-.3H53.8l2.55,7.3h5.17l-5-14.35a7.69,7.69,0,0,0-2.57-3.53,6.48,6.48,0,0,0-4.08-1.53Zm15.8,0,5,14.44a7.7,7.7,0,0,0,2.59,3.51,6.31,6.31,0,0,0,4,1.46h3.07V76.76H69.78c-.93,0-1.62-.59-2-1.76L66,69.92h3.45V65.07H64.29l-1-2.88Zm24.07,0A8.7,8.7,0,0,0,75.73,65a10.06,10.06,0,0,0,0,13.72,8.72,8.72,0,0,0,6.52,2.84h6.82V76.73H82.25a4,4,0,0,1-3.08-1.42,4.89,4.89,0,0,1-1.28-3.4,5,5,0,0,1,1.28-3.42,4,4,0,0,1,3.08-1.43h6.82V62.19Zm22.35,0v7.27H97.06V62.19H92.19V81.6h4.87V74.33h7.54V81.6h4.88V62.19Zm-71,0v12a3.07,3.07,0,1,1-6.13,0v-12H22.66v12a3,3,0,0,1-.9,2.16,3.06,3.06,0,0,1-5.23-2.16v-12H11.68v12A7.59,7.59,0,0,0,14,79.78a7.63,7.63,0,0,0,5.58,2.31,7.64,7.64,0,0,0,5.48-2.21,7.93,7.93,0,0,0,11.09-.1,7.62,7.62,0,0,0,2.32-5.6v-12ZM118.7,75.79a5.54,5.54,0,0,1,0-7.58,4.92,4.92,0,0,1,7.28,0,5.57,5.57,0,0,1,0,7.58,4.92,4.92,0,0,1-7.28,0m-3.43-11a10.4,10.4,0,0,0,0,14.43,9.78,9.78,0,0,0,14.15,0,10.43,10.43,0,0,0,0-14.43,9.8,9.8,0,0,0-14.15,0"/></clipPath><linearGradient id="linear-gradient" x1="-1112.55" y1="-158.75" x2="-1112.08" y2="-158.75" gradientTransform="matrix(253.66, 0, 0, -253.66, 282224.67, -40197.84)" gradientUnits="userSpaceOnUse"><stop offset="0" stop-color="#e61c5c"/><stop offset="0.14" stop-color="#e72657"/><stop offset="0.29" stop-color="#e93550"/><stop offset="0.34" stop-color="#eb4549"/><stop offset="0.44" stop-color="#f16f35"/><stop offset="0.59" stop-color="#fbb217"/><stop offset="0.64" stop-color="#ffcb0b"/><stop offset="0.91" stop-color="#2bace2"/><stop offset="1" stop-color="#273e95"/></linearGradient></defs><title>watcho</title><g class="cls-2"><rect class="cls-3" x="11.68" y="61.76" width="120.64" height="20.49"/></g></svg>